<svg width="480" height="280" viewBox="0 0 480 280" fill="none" xmlns="http://www.w3.org/2000/svg">
<path d="M115.582 69.7307C19.6379 118.487 13.8987 283.106 150.367 279.955C211.39 278.543 229.219 222.823 284.29 203.268C335.993 184.897 380.571 221.737 432.761 180.02C494.257 130.915 503.091 10.8165 411.688 2.7882C371.888 -0.709929 356.542 33.8911 321.77 41.5501C251.277 57.0853 186.873 33.5218 115.582 69.7307Z" fill="#9800FF"/>
<path opacity="0.9" d="M115.582 69.7307C19.6379 118.487 13.8987 283.106 150.367 279.955C211.39 278.543 229.219 222.823 284.29 203.268C335.993 184.897 380.571 221.737 432.761 180.02C494.257 130.915 503.091 10.8165 411.688 2.7882C371.888 -0.709929 356.542 33.8911 321.77 41.5501C251.277 57.0853 186.873 33.5218 115.582 69.7307Z" fill="white"/>
<path d="M0 61.5177L284.427 97.1726L322.593 130.709L0 61.5177Z" fill="#5C2482"/>
<path opacity="0.6" d="M0 61.5177L284.427 97.1726L322.593 130.709L0 61.5177Z" fill="white"/>
<path d="M0 61.5177L284.427 97.1726L271.227 145.668L0 61.5177Z" fill="#5C2482"/>
<path opacity="0.2" d="M0 61.5177L284.427 97.1726L271.227 145.668L0 61.5177Z" fill="black"/>
<path d="M265.388 5.37376L281.895 72.7291C282.324 74.4879 281.935 76.3232 280.812 77.8324C279.689 79.3415 277.925 80.4013 275.906 80.7791L128.583 108.156C126.563 108.527 124.457 108.186 122.725 107.209C120.993 106.232 119.775 104.698 119.338 102.941L102.819 35.5859C102.393 33.8258 102.786 31.9906 103.911 30.4819C105.035 28.9732 106.801 27.9139 108.82 27.5358L256.143 0.159162C258.164 -0.211442 260.272 0.130318 262.005 1.10965C263.737 2.08898 264.954 3.62612 265.388 5.38463V5.37376Z" fill="#5C2482"/>
<path opacity="0.4" d="M265.388 5.37376L281.895 72.7291C282.324 74.4879 281.935 76.3232 280.812 77.8324C279.689 79.3415 277.925 80.4013 275.906 80.7791L128.583 108.156C126.563 108.527 124.457 108.186 122.725 107.209C120.993 106.232 119.775 104.698 119.338 102.941L102.819 35.5859C102.393 33.8258 102.786 31.9906 103.911 30.4819C105.035 28.9732 106.801 27.9139 108.82 27.5358L256.143 0.159162C258.164 -0.211442 260.272 0.130318 262.005 1.10965C263.737 2.08898 264.954 3.62612 265.388 5.38463V5.37376Z" fill="black"/>
<path d="M261.758 0.963076L212.538 53.5763C207.973 58.4543 201.633 61.8292 194.566 63.1429C187.498 64.4566 180.128 63.6303 173.673 60.8007L104.067 30.2735C105.193 28.8649 106.893 27.8823 108.82 27.525L256.143 0.148294C258.066 -0.207986 260.072 0.0831459 261.758 0.963076Z" fill="#5C2482"/>
<path d="M0 61.5177L234.596 110.068L271.227 145.668L0 61.5177Z" fill="#5C2482"/>
<path opacity="0.6" d="M0 61.5177L234.596 110.068L271.227 145.668L0 61.5177Z" fill="white"/>
<path d="M85.5754 108.314L84.9448 109.251L111.051 122.566L111.682 121.629L85.5754 108.314Z" fill="#5C2482"/>
<path d="M123.208 127.499L122.577 128.437L131.965 133.225L132.595 132.287L123.208 127.499Z" fill="#5C2482"/>
<path d="M0 61.5177L234.596 110.068L188.994 157.923L0 61.5177Z" fill="#5C2482"/>
<path d="M313.785 175.261C313.468 175.262 313.155 175.21 312.861 175.109L274.658 161.942C274.047 161.728 273.558 161.312 273.298 160.785C273.038 160.257 273.028 159.662 273.27 159.128C273.512 158.595 273.987 158.166 274.59 157.936C275.194 157.706 275.878 157.694 276.492 157.901L314.708 171.068C315.248 171.254 315.697 171.598 315.977 172.042C316.257 172.486 316.351 173.001 316.241 173.498C316.132 173.995 315.827 174.443 315.378 174.765C314.929 175.087 314.366 175.263 313.785 175.261Z" fill="#5C2482"/>
<path opacity="0.3" d="M313.785 175.261C313.468 175.262 313.155 175.21 312.861 175.109L274.658 161.942C274.047 161.728 273.558 161.312 273.298 160.785C273.038 160.257 273.028 159.662 273.27 159.128C273.512 158.595 273.987 158.166 274.59 157.936C275.194 157.706 275.878 157.694 276.492 157.901L314.708 171.068C315.248 171.254 315.697 171.598 315.977 172.042C316.257 172.486 316.351 173.001 316.241 173.498C316.132 173.995 315.827 174.443 315.378 174.765C314.929 175.087 314.366 175.263 313.785 175.261Z" fill="black"/>
<path d="M311.526 156.185C311.213 156.183 310.904 156.127 310.616 156.022L290.092 148.906C289.785 148.802 289.505 148.647 289.267 148.449C289.029 148.25 288.839 148.013 288.707 147.751C288.575 147.488 288.504 147.206 288.498 146.919C288.493 146.633 288.552 146.348 288.673 146.081C288.794 145.815 288.974 145.572 289.203 145.366C289.432 145.161 289.706 144.997 290.008 144.884C290.311 144.77 290.636 144.711 290.965 144.707C291.294 144.704 291.62 144.757 291.926 144.864L312.45 151.948C313.065 152.158 313.559 152.573 313.823 153.101C314.087 153.628 314.1 154.225 313.859 154.761C313.684 155.178 313.366 155.537 312.949 155.791C312.532 156.046 312.036 156.183 311.526 156.185Z" fill="#5C2482"/>
<path opacity="0.5" d="M311.526 156.185C311.213 156.183 310.904 156.127 310.616 156.022L290.092 148.906C289.785 148.802 289.505 148.647 289.267 148.449C289.029 148.25 288.839 148.013 288.707 147.751C288.575 147.488 288.504 147.206 288.498 146.919C288.493 146.633 288.552 146.348 288.673 146.081C288.794 145.815 288.974 145.572 289.203 145.366C289.432 145.161 289.706 144.997 290.008 144.884C290.311 144.77 290.636 144.711 290.965 144.707C291.294 144.704 291.62 144.757 291.926 144.864L312.45 151.948C313.065 152.158 313.559 152.573 313.823 153.101C314.087 153.628 314.1 154.225 313.859 154.761C313.684 155.178 313.366 155.537 312.949 155.791C312.532 156.046 312.036 156.183 311.526 156.185Z" fill="white"/>
<path d="M268.619 174.979C268.308 174.976 267.999 174.924 267.709 174.827L230.441 161.942C230.134 161.839 229.854 161.683 229.617 161.485C229.379 161.287 229.189 161.05 229.057 160.787C228.925 160.525 228.854 160.242 228.848 159.956C228.842 159.669 228.901 159.384 229.022 159.118C229.143 158.851 229.323 158.608 229.553 158.403C229.782 158.197 230.056 158.033 230.358 157.92C230.66 157.807 230.985 157.747 231.314 157.744C231.644 157.74 231.97 157.794 232.275 157.901L269.543 170.742C270.083 170.928 270.532 171.273 270.812 171.716C271.092 172.16 271.186 172.675 271.076 173.172C270.967 173.669 270.661 174.117 270.213 174.439C269.764 174.761 269.201 174.937 268.619 174.935V174.979Z" fill="#5C2482"/>
<path opacity="0.3" d="M268.619 174.979C268.308 174.976 267.999 174.924 267.709 174.827L230.441 161.942C230.134 161.839 229.854 161.683 229.617 161.485C229.379 161.287 229.189 161.05 229.057 160.787C228.925 160.525 228.854 160.242 228.848 159.956C228.842 159.669 228.901 159.384 229.022 159.118C229.143 158.851 229.323 158.608 229.553 158.403C229.782 158.197 230.056 158.033 230.358 157.92C230.66 157.807 230.985 157.747 231.314 157.744C231.644 157.74 231.97 157.794 232.275 157.901L269.543 170.742C270.083 170.928 270.532 171.273 270.812 171.716C271.092 172.16 271.186 172.675 271.076 173.172C270.967 173.669 270.661 174.117 270.213 174.439C269.764 174.761 269.201 174.937 268.619 174.935V174.979Z" fill="black"/>
</svg>
