<svg width="24" height="24" viewBox="0 0 24 24" fill="none" xmlns="http://www.w3.org/2000/svg">
<g id="formkit:hidden">
<path id="Vector" d="M12 15.8754C9.525 15.8754 7.5 13.9271 7.5 11.5457C7.5 9.16443 9.525 7.21609 12 7.21609C14.475 7.21609 16.5 9.16443 16.5 11.5457C16.5 13.9271 14.475 15.8754 12 15.8754ZM12 8.65931C10.35 8.65931 9 9.9582 9 11.5457C9 13.1333 10.35 14.4322 12 14.4322C13.65 14.4322 15 13.1333 15 11.5457C15 9.9582 13.65 8.65931 12 8.65931Z" fill="#5C2482"/>
<path id="Vector_2" d="M12 18.7618C7.21502 18.7618 3.01502 15.962 1.54502 11.7767C1.48507 11.6281 1.48507 11.4634 1.54502 11.3148C3.01502 7.14393 7.23002 4.32965 12 4.32965C16.77 4.32965 20.985 7.1295 22.455 11.3148C22.515 11.4591 22.515 11.6323 22.455 11.7767C20.985 15.9476 16.77 18.7618 12 18.7618ZM3.04502 11.5457C4.38002 15.0095 7.95002 17.3186 12 17.3186C16.05 17.3186 19.605 15.0095 20.955 11.5457C19.62 8.08202 16.05 5.77287 12 5.77287C7.95002 5.77287 4.39502 8.08202 3.04502 11.5457Z" fill="#5C2482"/>
<path id="Vector_3" d="M21 20.9267C20.9016 20.9278 20.8041 20.9091 20.7137 20.8719C20.6233 20.8346 20.542 20.7795 20.475 20.7102L2.475 3.39156C2.175 3.10292 2.175 2.65552 2.475 2.36688C2.775 2.07823 3.24 2.07823 3.54 2.36688L21.525 19.6999C21.825 19.9886 21.825 20.436 21.525 20.7246C21.375 20.8689 21.18 20.9411 21 20.9411V20.9267Z" fill="#5C2482"/>
</g>
</svg>
