<svg width="24" height="24" viewBox="0 0 24 24" fill="none" xmlns="http://www.w3.org/2000/svg">
<g id="formkit:hidden">
<path id="Vector" d="M12 15.8754C9.525 15.8754 7.5 13.927 7.5 11.5457C7.5 9.16441 9.525 7.21606 12 7.21606C14.475 7.21606 16.5 9.16441 16.5 11.5457C16.5 13.927 14.475 15.8754 12 15.8754ZM12 8.65928C10.35 8.65928 9 9.95818 9 11.5457C9 13.1333 10.35 14.4322 12 14.4322C13.65 14.4322 15 13.1333 15 11.5457C15 9.95818 13.65 8.65928 12 8.65928Z" fill="#5C2482"/>
<path id="Vector_2" d="M12 18.7619C7.21502 18.7619 3.01502 15.962 1.54502 11.7767C1.48507 11.6282 1.48507 11.4634 1.54502 11.3149C3.01502 7.14399 7.23002 4.32971 12 4.32971C16.77 4.32971 20.985 7.12955 22.455 11.3149C22.515 11.4592 22.515 11.6324 22.455 11.7767C20.985 15.9476 16.77 18.7619 12 18.7619ZM3.04502 11.5458C4.38002 15.0095 7.95002 17.3187 12 17.3187C16.05 17.3187 19.605 15.0095 20.955 11.5458C19.62 8.08208 16.05 5.77293 12 5.77293C7.95002 5.77293 4.39502 8.08208 3.04502 11.5458Z" fill="#5C2482"/>
</g>
</svg>
