<svg width="425" height="280" viewBox="0 0 425 280" fill="none" xmlns="http://www.w3.org/2000/svg">
<path d="M58.6338 13.4358C63.0328 11.1591 67.665 9.14482 72.4874 7.41175C107.378 -5.05874 150.205 -0.951459 183.745 13.4514C217.285 27.8543 242.384 51.3949 260.636 76.8678C269.013 88.509 276.437 101.011 289.851 109.617C307.128 120.71 330.469 123.221 351.066 129.261C425.957 151.237 426.816 231.794 361.171 261.875C335.296 273.736 303.338 277.311 273.61 278.97C232.416 281.262 190.478 280.088 150.698 271.78C110.917 263.471 73.2937 247.66 46.6756 224.057C11.8271 193.155 -1.6076 151.135 0.151575 110.743C1.04164 90.3006 5.64901 69.686 17.1675 51.1523C26.5183 36.2488 40.6232 22.7456 58.6338 13.4358Z" fill="#5C2482"/>
<path opacity="0.7" d="M58.6338 13.4358C63.0328 11.1591 67.665 9.14482 72.4874 7.41175C107.378 -5.05874 150.205 -0.951459 183.745 13.4514C217.285 27.8543 242.384 51.3949 260.636 76.8678C269.013 88.509 276.437 101.011 289.851 109.617C307.128 120.71 330.469 123.221 351.066 129.261C425.957 151.237 426.816 231.794 361.171 261.875C335.296 273.736 303.338 277.311 273.61 278.97C232.416 281.262 190.478 280.088 150.698 271.78C110.917 263.471 73.2937 247.66 46.6756 224.057C11.8271 193.155 -1.6076 151.135 0.151575 110.743C1.04164 90.3006 5.64901 69.686 17.1675 51.1523C26.5183 36.2488 40.6232 22.7456 58.6338 13.4358Z" fill="white"/>
<path d="M424.307 49.8147V185.512C424.307 187.163 423.429 188.747 421.866 189.915C420.303 191.083 418.183 191.739 415.972 191.739H64.2536C62.0419 191.739 59.9206 191.083 58.3555 189.916C56.7905 188.748 55.9095 187.164 55.9062 185.512V49.8147C55.9095 48.1623 56.7905 46.5784 58.3555 45.4108C59.9206 44.2432 62.0419 43.5875 64.2536 43.5875H415.972C418.183 43.5875 420.303 44.2435 421.866 45.4114C423.429 46.5792 424.307 48.1631 424.307 49.8147Z" fill="white"/>
<mask id="mask0_305_3" style="mask-type:luminance" maskUnits="userSpaceOnUse" x="55" y="43" width="370" height="149">
<path d="M424.307 49.8147V185.512C424.307 187.163 423.429 188.747 421.866 189.915C420.303 191.083 418.183 191.739 415.972 191.739H64.2536C62.0419 191.739 59.9206 191.083 58.3555 189.916C56.7905 188.748 55.9095 187.164 55.9062 185.512V49.8147C55.9095 48.1623 56.7905 46.5784 58.3555 45.4108C59.9206 44.2432 62.0419 43.5875 64.2536 43.5875H415.972C418.183 43.5875 420.303 44.2435 421.866 45.4114C423.429 46.5792 424.307 48.1631 424.307 49.8147Z" fill="white"/>
</mask>
<g mask="url(#mask0_305_3)">
<path opacity="0.2" d="M424.307 57.0271V185.54C424.307 187.191 423.429 188.775 421.866 189.943C420.303 191.111 418.183 191.767 415.973 191.767H194.676V56.9992L424.307 57.0271Z" fill="#5C2482"/>
</g>
<path d="M424.307 49.8147V185.512C424.307 187.163 423.429 188.747 421.866 189.915C420.303 191.083 418.183 191.739 415.972 191.739H64.2536C62.0419 191.739 59.9206 191.083 58.3555 189.916C56.7905 188.748 55.9095 187.164 55.9062 185.512V49.8147C55.9095 48.1623 56.7905 46.5784 58.3555 45.4108C59.9206 44.2432 62.0419 43.5875 64.2536 43.5875H415.972C418.183 43.5875 420.303 44.2435 421.866 45.4114C423.429 46.5792 424.307 48.1631 424.307 49.8147Z" stroke="#263238" stroke-linecap="round" stroke-linejoin="round"/>
<path d="M393.493 111.938H347.726C345.275 111.938 342.924 112.666 341.191 113.961C339.457 115.256 338.483 117.012 338.483 118.844C338.487 120.674 339.462 122.428 341.195 123.721C342.928 125.014 345.277 125.74 347.726 125.74H393.493C394.707 125.741 395.908 125.564 397.03 125.218C398.151 124.872 399.17 124.364 400.029 123.723C400.887 123.083 401.568 122.322 402.033 121.485C402.497 120.648 402.736 119.75 402.736 118.844C402.738 117.936 402.5 117.038 402.036 116.2C401.572 115.361 400.892 114.599 400.033 113.958C399.174 113.316 398.155 112.808 397.033 112.461C395.91 112.115 394.708 111.937 393.493 111.938Z" fill="#5C2482" stroke="#263238" stroke-linecap="round" stroke-linejoin="round"/>
<path d="M424.308 49.8147V62.5293H55.8818V49.8147C55.8851 48.1623 56.766 46.5784 58.3311 45.4108C59.8962 44.2432 62.0174 43.5875 64.2291 43.5875H415.973C418.183 43.5875 420.303 44.2435 421.866 45.4114C423.43 46.5792 424.308 48.1631 424.308 49.8147Z" fill="#999999" stroke="#263238" stroke-linecap="round" stroke-linejoin="round"/>
<path d="M71.469 57.027C74.6432 57.027 77.2163 55.1046 77.2163 52.7331C77.2163 50.3616 74.6432 48.4391 71.469 48.4391C68.2949 48.4391 65.7217 50.3616 65.7217 52.7331C65.7217 55.1046 68.2949 57.027 71.469 57.027Z" fill="#5C2482" stroke="#263238" stroke-linecap="round" stroke-linejoin="round"/>
<path d="M87.0198 57.027C90.194 57.027 92.7671 55.1046 92.7671 52.7331C92.7671 50.3616 90.194 48.4391 87.0198 48.4391C83.8456 48.4391 81.2725 50.3616 81.2725 52.7331C81.2725 55.1046 83.8456 57.027 87.0198 57.027Z" fill="#757575" stroke="#263238" stroke-linecap="round" stroke-linejoin="round"/>
<path d="M102.57 57.027C105.744 57.027 108.317 55.1046 108.317 52.7331C108.317 50.3616 105.744 48.4391 102.57 48.4391C99.3954 48.4391 96.8223 50.3616 96.8223 52.7331C96.8223 55.1046 99.3954 57.027 102.57 57.027Z" fill="white" stroke="#263238" stroke-linecap="round" stroke-linejoin="round"/>
<path d="M194.676 62.5293V191.888" stroke="#263238" stroke-linecap="round" stroke-linejoin="round"/>
<path d="M411.768 57.0271H331.218C329.696 57.0246 328.238 56.5711 327.162 55.7661C326.087 54.9611 325.483 53.8703 325.483 52.7331C325.487 51.5975 326.092 50.5091 327.167 49.7061C328.242 48.9031 329.698 48.4509 331.218 48.4484H411.768C413.29 48.4484 414.75 48.8995 415.827 49.7028C416.905 50.5061 417.512 51.5959 417.515 52.7331C417.515 53.297 417.367 53.8554 417.078 54.3763C416.789 54.8973 416.366 55.3707 415.832 55.7694C415.298 56.1681 414.665 56.4844 413.967 56.7002C413.27 56.916 412.523 57.0271 411.768 57.0271Z" fill="white" stroke="#263238" stroke-linecap="round" stroke-linejoin="round"/>
<path d="M397.076 102.374H222.766C221.265 102.374 219.825 101.929 218.763 101.135C217.702 100.342 217.105 99.2667 217.105 98.1452C217.105 97.5898 217.252 97.0399 217.536 96.5268C217.821 96.0138 218.238 95.5476 218.763 95.1549C219.289 94.7622 219.913 94.4507 220.6 94.2382C221.286 94.0256 222.022 93.9163 222.766 93.9163H397.076C397.82 93.9163 398.556 94.0256 399.242 94.2382C399.929 94.4507 400.553 94.7622 401.079 95.1549C401.604 95.5476 402.021 96.0138 402.306 96.5268C402.59 97.0399 402.737 97.5898 402.737 98.1452C402.737 99.2667 402.14 100.342 401.079 101.135C400.017 101.929 398.578 102.374 397.076 102.374Z" fill="#BFBFBF" stroke="#263238" stroke-miterlimit="10"/>
<path d="M316.216 102.374H222.766C221.265 102.374 219.825 101.929 218.763 101.135C217.702 100.342 217.105 99.2667 217.105 98.1452C217.105 97.5898 217.252 97.0399 217.536 96.5268C217.821 96.0138 218.238 95.5476 218.763 95.1549C219.289 94.7622 219.913 94.4507 220.6 94.2382C221.286 94.0256 222.022 93.9163 222.766 93.9163H316.216C316.959 93.9163 317.695 94.0256 318.382 94.2382C319.069 94.4507 319.692 94.7622 320.218 95.1549C320.744 95.5476 321.161 96.0138 321.445 96.5268C321.73 97.0399 321.876 97.5898 321.876 98.1452C321.876 99.2667 321.28 100.342 320.218 101.135C319.157 101.929 317.717 102.374 316.216 102.374Z" fill="#5C2482" stroke="#263238" stroke-linecap="round" stroke-linejoin="round"/>
<path d="M229.931 162.434H222.256V168.169H229.931V162.434Z" stroke="#263238" stroke-linecap="round" stroke-linejoin="round"/>
<path d="M224.595 164.906L225.727 166.059L227.605 164.061" stroke="#263238" stroke-linecap="round" stroke-linejoin="round"/>
<path opacity="0.3" d="M296.498 163.633H244.225C242.988 163.633 241.985 164.38 241.985 165.301C241.985 166.223 242.988 166.97 244.225 166.97H296.498C297.735 166.97 298.737 166.223 298.737 165.301C298.737 164.38 297.735 163.633 296.498 163.633Z" fill="black"/>
<path d="M108.814 168.726L110.058 162.36H111.563L109.946 170.158H107.458L105.841 162.36H107.495L108.814 168.726Z" fill="#263238"/>
<path d="M114.014 165.65H116.266V166.765H114.014V169.052H116.851V170.158H112.372V162.36H116.851V163.475H114.014V165.65Z" fill="#263238"/>
<path d="M121.279 170.158C121.148 169.858 121.097 169.542 121.13 169.228V168.001C121.13 167.286 120.794 167.016 120.048 167.016H119.488V170.185H117.846V162.388H120.334C122.038 162.388 122.822 162.982 122.822 164.181V164.795C122.88 165.108 122.807 165.427 122.614 165.708C122.42 165.989 122.115 166.219 121.739 166.365C122.561 166.616 122.834 167.193 122.834 168.011V169.219C122.806 169.534 122.866 169.851 123.008 170.148L121.279 170.158ZM119.488 163.475V165.873H120.122C120.744 165.873 121.117 165.668 121.117 165.046V164.274C121.117 163.717 120.856 163.475 120.272 163.475H119.488Z" fill="#263238"/>
<path d="M125.434 168.977V170.158H123.842V168.977H125.434Z" fill="#263238"/>
<path d="M131.343 163.401C130.821 163.401 130.485 163.614 130.485 164.172V165.008H128.942V164.246C128.942 163.001 129.776 162.285 131.43 162.285C133.085 162.285 133.918 163.001 133.918 164.246C133.884 164.839 133.686 165.42 133.337 165.952C132.988 166.485 132.496 166.958 131.891 167.341C130.92 168.122 130.647 168.485 130.647 168.903C130.64 168.958 130.64 169.014 130.647 169.07H133.757V170.176H128.942V169.247C128.964 168.771 129.121 168.303 129.401 167.875C129.682 167.448 130.081 167.069 130.572 166.765C131.06 166.468 131.457 166.096 131.736 165.674C132.014 165.252 132.169 164.791 132.189 164.321C132.189 163.577 131.866 163.401 131.343 163.401Z" fill="#263238"/>
<path d="M136.406 168.977V170.158H134.826V168.977H136.406Z" fill="#263238"/>
<path d="M137.489 164.228C137.489 163.735 137.751 163.262 138.218 162.913C138.685 162.565 139.317 162.369 139.977 162.369C140.637 162.369 141.27 162.565 141.737 162.913C142.203 163.262 142.465 163.735 142.465 164.228V168.289C142.465 168.782 142.203 169.255 141.737 169.604C141.27 169.952 140.637 170.148 139.977 170.148C139.317 170.148 138.685 169.952 138.218 169.604C137.751 169.255 137.489 168.782 137.489 168.289V164.228ZM139.131 168.364C139.131 168.921 139.467 169.135 139.977 169.135C140.487 169.135 140.836 168.921 140.836 168.364V164.153C140.836 163.596 140.5 163.382 139.977 163.382C139.455 163.382 139.131 163.596 139.131 164.153V168.364Z" fill="#263238"/>
<path d="M145.015 167.639V168.364C145.015 168.921 145.338 169.126 145.861 169.126C146.383 169.126 146.719 168.921 146.719 168.364V166.654C146.719 166.096 146.383 165.882 145.861 165.882C145.338 165.882 145.015 166.096 145.015 166.654V166.886H143.46L143.758 162.36H148.088V163.475H145.226L145.09 165.334C145.234 165.152 145.443 165.003 145.693 164.903C145.943 164.803 146.225 164.756 146.508 164.767C147.752 164.767 148.336 165.399 148.336 166.551V168.289C148.389 168.547 148.363 168.81 148.258 169.059C148.154 169.308 147.975 169.536 147.735 169.725C147.495 169.914 147.2 170.06 146.873 170.151C146.546 170.242 146.196 170.276 145.848 170.25C144.231 170.25 143.36 169.535 143.36 168.289V167.639H145.015Z" fill="#263238"/>
<path d="M100.33 139.049C96.4293 136.279 93.3339 132.938 91.2363 129.235" stroke="#263238" stroke-linecap="round" stroke-linejoin="round"/>
<path d="M136.17 89.3806C142.373 90.4653 148.128 92.6632 152.938 95.784C157.748 98.9047 161.468 102.854 163.774 107.291" stroke="#263238" stroke-linecap="round" stroke-linejoin="round"/>
<path d="M139.479 110.423V102.058L131.119 101.519C130.632 100.223 129.938 98.9747 129.054 97.8013L134.453 93.0147L126.566 87.1872L120.16 91.2116C118.586 90.5567 116.916 90.039 115.184 89.6688L114.462 83.4323H103.266L102.545 89.6688C100.811 90.0356 99.1405 90.5535 97.5685 91.2116L91.1494 87.1872L83.2748 93.0798L88.6614 97.8664C87.7826 99.0417 87.0896 100.289 86.5963 101.584L78.249 102.123V110.488L86.5963 111.027C87.0896 112.322 87.7826 113.57 88.6614 114.745L83.2748 119.531L91.1494 125.424L97.5685 121.4C99.1405 122.058 100.811 122.576 102.545 122.942L103.266 129.179H114.462L115.184 122.942C116.916 122.572 118.586 122.055 120.16 121.4L126.566 125.424L134.453 119.531L129.054 114.745C129.938 113.571 130.632 112.323 131.119 111.027L139.479 110.423ZM108.864 116C106.303 116 103.799 115.432 101.669 114.369C99.5397 113.306 97.8799 111.795 96.8997 110.027C95.9196 108.259 95.6631 106.313 96.1628 104.437C96.6625 102.56 97.8959 100.836 99.707 99.4827C101.518 98.1295 103.826 97.208 106.338 96.8347C108.85 96.4614 111.454 96.653 113.82 97.3853C116.186 98.1176 118.209 99.3577 119.632 100.949C121.055 102.54 121.814 104.411 121.814 106.324C121.811 108.89 120.446 111.349 118.018 113.163C115.59 114.977 112.298 115.997 108.864 116Z" fill="#5C2482" stroke="#263238" stroke-linecap="round" stroke-linejoin="round"/>
<path d="M176.365 129.012V123.091L170.418 122.71C170.066 121.782 169.574 120.887 168.95 120.043L172.782 116.641L167.171 112.449L162.618 115.312C161.488 114.846 160.29 114.478 159.048 114.215L158.538 109.782H150.614L150.091 114.234C148.854 114.498 147.66 114.866 146.533 115.33L141.98 112.468L136.407 116.659L140.239 120.061C139.615 120.906 139.122 121.801 138.771 122.729L132.824 123.11V129.012L138.771 129.402C139.125 130.326 139.617 131.218 140.239 132.06L136.407 135.518L142.017 139.709L146.571 136.847C147.695 137.315 148.889 137.683 150.128 137.943L150.651 142.386H158.575L159.085 137.943C160.329 137.685 161.528 137.316 162.656 136.847L167.209 139.709L172.819 135.518L168.988 132.116C169.609 131.274 170.101 130.382 170.456 129.458L176.365 129.012ZM154.57 132.943C152.746 132.943 150.964 132.539 149.448 131.782C147.932 131.026 146.751 129.95 146.053 128.692C145.355 127.433 145.173 126.048 145.529 124.712C145.884 123.376 146.762 122.149 148.051 121.186C149.34 120.223 150.983 119.567 152.771 119.301C154.559 119.036 156.413 119.172 158.097 119.693C159.782 120.214 161.221 121.097 162.234 122.23C163.247 123.362 163.788 124.694 163.788 126.056C163.791 126.962 163.555 127.86 163.093 128.697C162.631 129.535 161.953 130.296 161.097 130.938C160.24 131.579 159.223 132.088 158.103 132.436C156.983 132.783 155.782 132.962 154.57 132.962V132.943Z" fill="#5C2482"/>
<mask id="mask1_305_3" style="mask-type:luminance" maskUnits="userSpaceOnUse" x="132" y="109" width="45" height="34">
<path d="M176.365 129.012V123.091L170.418 122.71C170.066 121.782 169.574 120.887 168.95 120.043L172.782 116.641L167.171 112.449L162.618 115.312C161.488 114.846 160.29 114.478 159.048 114.215L158.538 109.782H150.614L150.091 114.234C148.854 114.498 147.66 114.866 146.533 115.33L141.98 112.468L136.407 116.659L140.239 120.061C139.615 120.906 139.122 121.801 138.771 122.729L132.824 123.11V129.012L138.771 129.402C139.125 130.326 139.617 131.218 140.239 132.06L136.407 135.518L142.017 139.709L146.571 136.847C147.695 137.315 148.889 137.683 150.128 137.943L150.651 142.386H158.575L159.085 137.943C160.329 137.685 161.528 137.316 162.656 136.847L167.209 139.709L172.819 135.518L168.988 132.116C169.609 131.274 170.101 130.382 170.456 129.458L176.365 129.012ZM154.57 132.943C152.746 132.943 150.964 132.539 149.448 131.782C147.932 131.026 146.751 129.95 146.053 128.692C145.355 127.433 145.173 126.048 145.529 124.712C145.884 123.376 146.762 122.149 148.051 121.186C149.34 120.223 150.983 119.567 152.771 119.301C154.559 119.036 156.413 119.172 158.097 119.693C159.782 120.214 161.221 121.097 162.234 122.23C163.247 123.362 163.788 124.694 163.788 126.056C163.791 126.962 163.555 127.86 163.093 128.697C162.631 129.535 161.953 130.296 161.097 130.938C160.24 131.579 159.223 132.088 158.103 132.436C156.983 132.783 155.782 132.962 154.57 132.962V132.943Z" fill="white"/>
</mask>
<g mask="url(#mask1_305_3)">
<path opacity="0.3" d="M176.365 129.012V123.091L170.418 122.71C170.066 121.782 169.574 120.887 168.95 120.043L172.782 116.641L167.171 112.449L162.618 115.312C161.488 114.846 160.29 114.478 159.048 114.215L158.538 109.782H150.614L150.091 114.234C148.854 114.498 147.66 114.866 146.533 115.33L141.98 112.468L136.407 116.659L140.239 120.061C139.615 120.906 139.122 121.801 138.771 122.729L132.824 123.11V129.012L138.771 129.402C139.125 130.326 139.617 131.218 140.239 132.06L136.407 135.518L142.017 139.709L146.571 136.847C147.695 137.315 148.889 137.683 150.128 137.943L150.651 142.386H158.575L159.085 137.943C160.329 137.685 161.528 137.316 162.656 136.847L167.209 139.709L172.819 135.518L168.988 132.116C169.609 131.274 170.101 130.382 170.456 129.458L176.365 129.012ZM154.57 132.943C152.746 132.943 150.964 132.539 149.448 131.782C147.932 131.026 146.751 129.95 146.053 128.692C145.355 127.433 145.173 126.048 145.529 124.712C145.884 123.376 146.762 122.149 148.051 121.186C149.34 120.223 150.983 119.567 152.771 119.301C154.559 119.036 156.413 119.172 158.097 119.693C159.782 120.214 161.221 121.097 162.234 122.23C163.247 123.362 163.788 124.694 163.788 126.056C163.791 126.962 163.555 127.86 163.093 128.697C162.631 129.535 161.953 130.296 161.097 130.938C160.24 131.579 159.223 132.088 158.103 132.436C156.983 132.783 155.782 132.962 154.57 132.962V132.943Z" fill="white"/>
</g>
<path d="M176.365 129.012V123.091L170.418 122.71C170.066 121.782 169.574 120.887 168.95 120.043L172.782 116.641L167.171 112.449L162.618 115.312C161.488 114.846 160.29 114.478 159.048 114.215L158.538 109.782H150.614L150.091 114.234C148.854 114.498 147.66 114.866 146.533 115.33L141.98 112.468L136.407 116.659L140.239 120.061C139.615 120.906 139.122 121.801 138.771 122.729L132.824 123.11V129.012L138.771 129.402C139.125 130.326 139.617 131.218 140.239 132.06L136.407 135.518L142.017 139.709L146.571 136.847C147.695 137.315 148.889 137.683 150.128 137.943L150.651 142.386H158.575L159.085 137.943C160.329 137.685 161.528 137.316 162.656 136.847L167.209 139.709L172.819 135.518L168.988 132.116C169.609 131.274 170.101 130.382 170.456 129.458L176.365 129.012ZM154.57 132.943C152.746 132.943 150.964 132.539 149.448 131.782C147.932 131.026 146.751 129.95 146.053 128.692C145.355 127.433 145.173 126.048 145.529 124.712C145.884 123.376 146.762 122.149 148.051 121.186C149.34 120.223 150.983 119.567 152.771 119.301C154.559 119.036 156.413 119.172 158.097 119.693C159.782 120.214 161.221 121.097 162.234 122.23C163.247 123.362 163.788 124.694 163.788 126.056C163.791 126.962 163.555 127.86 163.093 128.697C162.631 129.535 161.953 130.296 161.097 130.938C160.24 131.579 159.223 132.088 158.103 132.436C156.983 132.783 155.782 132.962 154.57 132.962V132.943Z" stroke="#263238" stroke-linecap="round" stroke-linejoin="round"/>
<path d="M137.551 142.842V138.622L133.321 138.352C133.073 137.704 132.722 137.08 132.276 136.493L135.013 134.068L131.02 131.084L127.773 133.129C126.988 132.796 126.153 132.534 125.285 132.348L124.924 129.188H119.276L118.915 132.348C118.047 132.534 117.212 132.796 116.427 133.129L113.193 131.084L109.2 134.068L111.924 136.493C111.478 137.08 111.127 137.704 110.879 138.352L106.649 138.622V142.842L110.879 143.111C111.127 143.759 111.478 144.384 111.924 144.97L109.2 147.386L113.193 150.37L116.427 148.334C117.212 148.668 118.047 148.93 118.915 149.115L119.276 152.275H124.924L125.285 149.115C126.153 148.93 126.988 148.668 127.773 148.334L131.02 150.37L135.013 147.386L132.276 144.97C132.722 144.384 133.073 143.759 133.321 143.111L137.551 142.842ZM122.05 145.63C120.754 145.63 119.486 145.343 118.408 144.804C117.33 144.266 116.49 143.501 115.993 142.606C115.497 141.711 115.367 140.726 115.62 139.776C115.873 138.826 116.498 137.953 117.415 137.268C118.331 136.583 119.5 136.117 120.771 135.928C122.043 135.739 123.361 135.836 124.559 136.206C125.757 136.577 126.781 137.205 127.501 138.01C128.222 138.816 128.606 139.763 128.606 140.732C128.606 141.375 128.437 142.012 128.107 142.606C127.778 143.2 127.295 143.74 126.686 144.195C126.077 144.65 125.354 145.011 124.559 145.257C123.764 145.503 122.911 145.63 122.05 145.63Z" fill="#5C2482"/>
<mask id="mask2_305_3" style="mask-type:luminance" maskUnits="userSpaceOnUse" x="106" y="129" width="32" height="24">
<path d="M137.551 142.842V138.622L133.321 138.352C133.073 137.704 132.722 137.08 132.276 136.493L135.013 134.068L131.02 131.084L127.773 133.129C126.988 132.796 126.153 132.534 125.285 132.348L124.924 129.188H119.276L118.915 132.348C118.047 132.534 117.212 132.796 116.427 133.129L113.193 131.084L109.2 134.068L111.924 136.493C111.478 137.08 111.127 137.704 110.879 138.352L106.649 138.622V142.842L110.879 143.111C111.127 143.759 111.478 144.384 111.924 144.97L109.2 147.386L113.193 150.37L116.427 148.334C117.212 148.668 118.047 148.93 118.915 149.115L119.276 152.275H124.924L125.285 149.115C126.153 148.93 126.988 148.668 127.773 148.334L131.02 150.37L135.013 147.386L132.276 144.97C132.722 144.384 133.073 143.759 133.321 143.111L137.551 142.842ZM122.05 145.63C120.754 145.63 119.486 145.343 118.408 144.804C117.33 144.266 116.49 143.501 115.993 142.606C115.497 141.711 115.367 140.726 115.62 139.776C115.873 138.826 116.498 137.953 117.415 137.268C118.331 136.583 119.5 136.117 120.771 135.928C122.043 135.739 123.361 135.836 124.559 136.206C125.757 136.577 126.781 137.205 127.501 138.01C128.222 138.816 128.606 139.763 128.606 140.732C128.606 141.375 128.437 142.012 128.107 142.606C127.778 143.2 127.295 143.74 126.686 144.195C126.077 144.65 125.354 145.011 124.559 145.257C123.764 145.503 122.911 145.63 122.05 145.63Z" fill="white"/>
</mask>
<g mask="url(#mask2_305_3)">
<path opacity="0.5" d="M137.551 142.842V138.622L133.321 138.352C133.073 137.704 132.722 137.08 132.276 136.493L135.013 134.068L131.02 131.084L127.773 133.129C126.988 132.796 126.153 132.534 125.285 132.348L124.924 129.188H119.276L118.915 132.348C118.047 132.534 117.212 132.796 116.427 133.129L113.193 131.084L109.2 134.068L111.924 136.493C111.478 137.08 111.127 137.704 110.879 138.352L106.649 138.622V142.842L110.879 143.111C111.127 143.759 111.478 144.384 111.924 144.97L109.2 147.386L113.193 150.37L116.427 148.334C117.212 148.668 118.047 148.93 118.915 149.115L119.276 152.275H124.924L125.285 149.115C126.153 148.93 126.988 148.668 127.773 148.334L131.02 150.37L135.013 147.386L132.276 144.97C132.722 144.384 133.073 143.759 133.321 143.111L137.551 142.842ZM122.05 145.63C120.754 145.63 119.486 145.343 118.408 144.804C117.33 144.266 116.49 143.501 115.993 142.606C115.497 141.711 115.367 140.726 115.62 139.776C115.873 138.826 116.498 137.953 117.415 137.268C118.331 136.583 119.5 136.117 120.771 135.928C122.043 135.739 123.361 135.836 124.559 136.206C125.757 136.577 126.781 137.205 127.501 138.01C128.222 138.816 128.606 139.763 128.606 140.732C128.606 141.375 128.437 142.012 128.107 142.606C127.778 143.2 127.295 143.74 126.686 144.195C126.077 144.65 125.354 145.011 124.559 145.257C123.764 145.503 122.911 145.63 122.05 145.63Z" fill="white"/>
</g>
<path d="M137.551 142.842V138.622L133.321 138.352C133.073 137.704 132.722 137.08 132.276 136.493L135.013 134.068L131.02 131.084L127.773 133.129C126.988 132.796 126.153 132.534 125.285 132.348L124.924 129.188H119.276L118.915 132.348C118.047 132.534 117.212 132.796 116.427 133.129L113.193 131.084L109.2 134.068L111.924 136.493C111.478 137.08 111.127 137.704 110.879 138.352L106.649 138.622V142.842L110.879 143.111C111.127 143.759 111.478 144.384 111.924 144.97L109.2 147.386L113.193 150.37L116.427 148.334C117.212 148.668 118.047 148.93 118.915 149.115L119.276 152.275H124.924L125.285 149.115C126.153 148.93 126.988 148.668 127.773 148.334L131.02 150.37L135.013 147.386L132.276 144.97C132.722 144.384 133.073 143.759 133.321 143.111L137.551 142.842ZM122.05 145.63C120.754 145.63 119.486 145.343 118.408 144.804C117.33 144.266 116.49 143.501 115.993 142.606C115.497 141.711 115.367 140.726 115.62 139.776C115.873 138.826 116.498 137.953 117.415 137.268C118.331 136.583 119.5 136.117 120.771 135.928C122.043 135.739 123.361 135.836 124.559 136.206C125.757 136.577 126.781 137.205 127.501 138.01C128.222 138.816 128.606 139.763 128.606 140.732C128.606 141.375 128.437 142.012 128.107 142.606C127.778 143.2 127.295 143.74 126.686 144.195C126.077 144.65 125.355 145.011 124.559 145.257C123.764 145.503 122.911 145.63 122.05 145.63Z" stroke="#263238" stroke-linecap="round" stroke-linejoin="round"/>
<path d="M160.802 106.278L163.8 107.291L164.982 105.274" stroke="#263238" stroke-linecap="round" stroke-linejoin="round"/>
<path d="M94.1845 130.164L91.174 129.151L89.9922 131.177" stroke="#263238" stroke-linecap="round" stroke-linejoin="round"/>
<path d="M218.748 83.4694V88.0329C218.748 88.4604 218.997 88.6092 219.395 88.6092C219.793 88.6092 220.042 88.4604 220.042 88.0329V83.4694H221.223V87.9771C221.262 88.171 221.241 88.3689 221.163 88.5559C221.084 88.743 220.951 88.9144 220.771 89.0574C220.592 89.2004 220.371 89.3112 220.127 89.3817C219.882 89.4521 219.619 89.4803 219.357 89.4642C218.113 89.4642 217.504 88.9252 217.504 87.9771V83.4694H218.748Z" fill="#263238"/>
<path d="M225.752 84.9193V85.6907C225.752 86.6202 225.142 87.1592 223.898 87.1592H223.313V89.3806H222.069V83.4694H223.898C225.142 83.4694 225.752 83.9806 225.752 84.9193ZM223.264 84.3059V86.3135H223.848C224.246 86.3135 224.458 86.174 224.458 85.7558V84.8264C224.458 84.4081 224.246 84.2687 223.848 84.2687L223.264 84.3059Z" fill="#263238"/>
<path d="M230.205 89.3806H228.961L228.749 88.3025H227.219L227.008 89.3806H225.863L227.107 83.4601H228.924L230.205 89.3806ZM227.369 87.5218H228.613L228.028 84.529L227.369 87.5218Z" fill="#263238"/>
<path d="M230.777 83.4694H232.755C233.999 83.4694 234.609 83.9899 234.609 84.9286V87.9214C234.609 88.8508 233.999 89.3899 232.755 89.3899H230.777V83.4694ZM232.021 84.3152V88.5441H232.73C233.129 88.5441 233.365 88.3861 233.365 87.9678V84.8914C233.365 84.4639 233.129 84.3152 232.73 84.3152H232.021Z" fill="#263238"/>
<path d="M239.411 89.3806H238.167L237.955 88.3025H236.425L236.214 89.3806H235.069L236.313 83.4601H238.13L239.411 89.3806ZM236.575 87.5218H237.819L237.234 84.529L236.575 87.5218Z" fill="#263238"/>
<path d="M239.199 83.4694H243.043V84.3152H241.737V89.3899H240.493V84.3059H239.249L239.199 83.4694Z" fill="#263238"/>
<path d="M243.578 83.4694H244.822V89.3899H243.578V83.4694Z" fill="#263238"/>
<path d="M246.862 85.0959V89.3806H245.742V83.4694H247.31L248.554 87.0105V83.4694H249.611V89.3899H248.367L246.862 85.0959Z" fill="#263238"/>
<path d="M252.423 86.0811H254.164V87.94C254.164 88.8694 253.53 89.427 252.311 89.427C251.092 89.427 250.457 88.888 250.457 87.94V84.8635C250.457 83.9341 251.092 83.3764 252.311 83.3764C253.53 83.3764 254.164 83.9155 254.164 84.8635V85.4398H252.92V84.8078C252.92 84.3802 252.671 84.2222 252.286 84.2222C251.9 84.2222 251.639 84.3802 251.639 84.8078V87.9957C251.639 88.4233 251.888 88.572 252.286 88.572C252.684 88.572 252.92 88.4233 252.92 87.9957V86.9083H252.36L252.423 86.0811Z" fill="#263238"/>
<path d="M413.933 129.541L393.258 118.528L399.142 136.977L403.384 132.274L407.29 136.614L410.413 135.044L406.507 130.703L413.933 129.541Z" fill="#263238"/>
</svg>
