<svg width="237" height="185" viewBox="0 0 237 185" fill="none" xmlns="http://www.w3.org/2000/svg">
<g id="freepik--Grade--inject-11">
<path id="Vector" d="M64.5994 115.259C65.3289 118.902 74.0461 120.366 74.0461 120.366L80.51 116.659C83.2157 139.458 85.6166 158.069 86.4199 159.691C88.5992 164.065 104.584 158.236 106.033 150.942C106.624 147.994 103.762 128.114 100.151 105.482L122.738 92.6176C122.738 92.6176 123.726 89.3645 116.699 90.6249C114.243 91.0698 107.077 93.7483 98.8215 97.2145C93.7427 65.9811 87.8697 32.8385 87.8697 32.8385C87.8697 32.8385 164.865 116.677 168.503 116.677C172.141 116.677 177.22 115.955 175.041 109.393C172.862 102.831 87.8697 21.1792 87.8697 21.1792C87.8697 21.1792 73.3443 20.447 70.4447 27.0088C70.4447 27.0088 74.9787 69.1971 79.2634 106.01C70.7587 110.171 64.3224 113.869 64.5994 115.259Z" fill="#263238"/>
<path id="Vector_2" d="M236.338 93.7668C236.243 89.9938 235.869 86.233 235.221 82.5153C233.936 75.0773 231.575 67.8677 228.212 61.1154C226.569 57.7687 224.69 54.5444 222.588 51.4673C220.532 48.4021 218.28 45.4735 215.847 42.6997C213.456 39.9327 210.9 37.3142 208.192 34.8589C202.844 30.0206 197.057 25.6952 190.906 21.9392C166.472 7.0454 138.27 0.214825 110.346 0.62262C103.363 0.81701 96.4063 1.56698 89.5413 2.86549C82.6684 4.13337 75.9484 6.12785 69.4938 8.8156C63.0774 11.517 57.0197 15.0069 51.4593 19.2051C45.9613 23.3359 40.9433 28.0738 36.4999 33.3297C36.4207 33.4153 36.3767 33.5279 36.3767 33.6448C36.3767 33.7617 36.4207 33.8742 36.4999 33.9599C36.5428 34.0033 36.5938 34.0378 36.6501 34.0613C36.7064 34.0849 36.7667 34.097 36.8277 34.097C36.8886 34.097 36.949 34.0849 37.0052 34.0613C37.0615 34.0378 37.1126 34.0033 37.1555 33.9599C41.8097 29.0658 46.9981 24.7133 52.6228 20.9846C58.2019 17.1905 64.2248 14.0996 70.5557 11.7814C83.2344 7.14734 96.8179 5.39567 110.263 5.52543C123.767 5.72851 137.183 7.74207 150.155 11.5126C163.142 15.2138 175.53 20.7764 186.935 28.0283C198.228 35.3408 208.414 44.5904 215.801 55.8326C217.659 58.6349 219.313 61.5681 220.751 64.6094C223.667 70.6684 225.686 77.1221 226.744 83.7665C227.274 87.0867 227.561 90.4415 227.602 93.8039C227.636 97.1638 227.458 100.523 227.067 103.86C226.818 105.519 226.587 107.178 226.264 108.827L225.7 111.274L225.423 112.498L225.063 113.702C223.186 120.154 220.357 126.286 216.669 131.896C209.282 143.11 198.782 152.091 187.166 158.773C175.435 165.422 162.699 170.099 149.462 172.62C136.224 175.196 122.701 175.975 109.256 174.937C107.567 174.862 105.895 174.631 104.224 174.482C103.383 174.39 102.543 174.316 101.712 174.214L99.2188 173.834C97.5567 173.556 95.8853 173.37 94.2416 173.018L89.3474 172.082C88.5218 171.917 87.7051 171.709 86.9003 171.461L84.4717 170.785C82.8465 170.33 81.2213 169.904 79.6422 169.32L74.8681 167.68L70.1864 165.78C69.4107 165.455 68.6258 165.15 67.8593 164.807L65.5785 163.741C64.0641 162.999 62.5219 162.323 61.0352 161.535C58.0895 159.895 55.0884 158.356 52.2812 156.484L50.1481 155.14L49.0769 154.463L48.0519 153.731L43.9427 150.765C42.5668 149.783 41.3017 148.662 39.9812 147.614L38.0235 146.02C37.3586 145.501 36.7677 144.889 36.1767 144.333L32.483 140.904L28.9739 137.225C28.4014 136.604 27.8012 136.02 27.2564 135.371L25.6404 133.425L24.0244 131.479C23.498 130.821 22.9255 130.2 22.4638 129.495L19.5273 125.38L18.7886 124.351L18.1329 123.267L16.7848 121.108C15.0451 118.221 13.4517 115.249 12.0106 112.201C9.19156 106.076 7.23069 99.5883 6.18384 92.9234C5.20641 86.2465 5.24065 79.4597 6.28542 72.7931C7.33938 66.1135 9.28692 59.6073 12.0753 53.4507C14.8862 47.3045 18.3507 41.4812 22.4084 36.0823C30.6066 25.2975 40.5332 15.9548 51.7825 8.4356C51.8821 8.37095 51.9524 8.26968 51.9783 8.15355C52.0042 8.03743 51.9836 7.91572 51.921 7.81464C51.8579 7.711 51.7566 7.63642 51.6392 7.60695C51.5217 7.57748 51.3975 7.59548 51.2931 7.65709C45.4037 11.1677 39.794 15.1308 34.5145 19.511C29.2117 23.9605 24.325 28.8869 19.9152 34.2287C15.4265 39.6392 11.5692 45.5474 8.41852 51.838C5.20829 58.2373 2.87549 65.0431 1.48361 72.0702C0.126095 79.2206 -0.135483 86.5371 0.707934 93.7668C1.62091 101.015 3.52895 108.101 6.37776 114.824C9.25589 121.455 12.8313 127.759 17.0433 133.629C17.5327 134.389 18.1237 135.065 18.6685 135.779L20.3492 137.901L22.0206 140.014C22.5931 140.71 23.221 141.358 23.812 142.026L27.4503 146.011L31.3194 149.718C31.9751 150.33 32.5938 150.988 33.2771 151.572L35.3271 153.314C36.703 154.454 38.0235 155.678 39.4548 156.753L43.7487 160.034L44.8291 160.84L45.9372 161.581L48.1812 163.064C51.1177 165.131 54.2942 166.771 57.4154 168.625C58.9852 169.478 60.6105 170.228 62.208 171.044L64.6181 172.23C65.4307 172.61 66.2618 172.944 67.0837 173.296L72.0332 175.391L77.1028 177.244C78.7834 177.893 80.5102 178.375 82.237 178.885L84.8226 179.645C85.6814 179.904 86.5494 180.155 87.4359 180.34L92.6994 181.554C94.4632 181.962 96.2639 182.194 98.0461 182.481L100.724 182.926C101.647 183.055 102.488 183.139 103.365 183.25C105.129 183.435 106.892 183.704 108.665 183.815C115.754 184.469 122.88 184.599 129.987 184.205C137.116 183.839 144.212 182.988 151.226 181.656C165.458 179.029 179.162 174.073 191.792 166.985C204.397 159.672 215.912 149.727 224.223 137.049C228.374 130.655 231.546 123.673 233.632 116.335L234.03 114.963L234.353 113.563L234.971 110.783C235.332 108.929 235.59 107.002 235.895 105.12C236.311 101.351 236.46 97.557 236.338 93.7668Z" fill="#263238"/>
<path id="Vector_3" d="M109.229 32.8385C109.488 33.3906 109.898 33.8577 110.412 34.1857C110.925 34.5137 111.52 34.6893 112.128 34.6921C112.622 34.6953 113.109 34.581 113.55 34.3584L126.478 27.9913L134.946 35.2204C135.266 35.5153 135.643 35.7424 136.052 35.8879C136.462 36.0335 136.897 36.0946 137.331 36.0675C137.765 36.0405 138.189 35.9259 138.578 35.7305C138.966 35.5352 139.312 35.2631 139.593 34.9307C139.875 34.5982 140.087 34.2122 140.216 33.7956C140.346 33.3791 140.39 32.9406 140.347 32.5065C140.303 32.0723 140.173 31.6514 139.964 31.2689C139.755 30.8864 139.471 30.5503 139.129 30.2805L132.794 24.8679L139.932 21.3368C140.317 21.1445 140.661 20.878 140.943 20.5524C141.226 20.2269 141.441 19.8487 141.578 19.4395C141.715 19.0302 141.77 18.598 141.74 18.1674C141.711 17.7368 141.597 17.3163 141.405 16.9298C141.214 16.5434 140.948 16.1986 140.624 15.9152C140.299 15.6318 139.923 15.4153 139.515 15.278C139.107 15.1407 138.676 15.0854 138.247 15.1152C137.818 15.145 137.399 15.2593 137.014 15.4516L127.365 20.2246L120.587 14.4321C119.934 13.8741 119.087 13.5992 118.233 13.6679C117.378 13.7365 116.586 14.1431 116.03 14.7982C115.474 15.4532 115.2 16.3031 115.268 17.1609C115.337 18.0186 115.742 18.814 116.394 19.372L121.011 23.348L110.632 28.4732C109.869 28.8653 109.293 29.5455 109.03 30.3641C108.767 31.1827 108.838 32.0728 109.229 32.8385Z" fill="#263238"/>
</g>
</svg>
