<svg width="325" height="284" viewBox="0 0 325 284" fill="none" xmlns="http://www.w3.org/2000/svg">
<path opacity="0.7" d="M323.381 137.846C319.355 116.53 306.344 100.959 289.408 88.4383C277.32 79.4946 267.504 67.7982 259.083 55.342C247.318 37.9272 237.558 16.138 218.535 5.36849C191.479 -9.94238 165.466 10.883 143.535 25.5729C132.029 33.2839 119.756 41.3286 105.831 43.553C85.9776 46.7412 65.8193 37.9921 46.1319 43.2564C42.3086 43.43 38.5496 44.3065 35.0415 45.8422C35.0415 45.8422 10.1091 54.1834 2.7217 96.8166C-4.66569 139.45 1.79828 203.4 36.8884 240.472C71.9785 277.544 99.6812 282.178 118.15 283.105C118.658 283.105 119.156 283.105 119.655 283.105C131.909 284.959 146.434 284.032 163.056 279.398C216.504 264.495 213.53 230.221 261.04 222.77C308.551 215.318 331.544 181.054 323.381 137.846Z" fill="white"/>
</svg>
