<svg width="325" height="284" viewBox="0 0 325 284" fill="none" xmlns="http://www.w3.org/2000/svg">
<path d="M323.381 137.846C319.355 116.53 306.344 100.959 289.408 88.4383C277.32 79.4946 267.504 67.7982 259.083 55.342C247.318 37.9272 237.558 16.138 218.535 5.36849C191.479 -9.94238 165.466 10.883 143.535 25.5729C132.029 33.2839 119.756 41.3286 105.831 43.553C85.9776 46.7412 65.8193 37.9921 46.1319 43.2564C42.3086 43.43 38.5496 44.3065 35.0415 45.8422C35.0415 45.8422 10.1091 54.1834 2.7217 96.8166C-4.66569 139.45 1.79828 203.4 36.8884 240.472C71.9785 277.544 99.6812 282.178 118.15 283.105C118.658 283.105 119.156 283.105 119.655 283.105C131.909 284.959 146.434 284.032 163.056 279.398C216.504 264.495 213.53 230.221 261.04 222.77C308.551 215.318 331.544 181.054 323.381 137.846Z" fill="#5C2482"/>
<path opacity="0.7" d="M323.381 137.846C319.355 116.53 306.344 100.959 289.408 88.4383C277.32 79.4946 267.504 67.7982 259.083 55.342C247.318 37.9272 237.558 16.138 218.535 5.36849C191.479 -9.94238 165.466 10.883 143.535 25.5729C132.029 33.2839 119.756 41.3286 105.831 43.553C85.9776 46.7412 65.8193 37.9921 46.1319 43.2564C42.3086 43.43 38.5496 44.3065 35.0415 45.8422C35.0415 45.8422 10.1091 54.1834 2.7217 96.8166C-4.66569 139.45 1.79828 203.4 36.8884 240.472C71.9785 277.544 99.6812 282.178 118.15 283.105C118.658 283.105 119.156 283.105 119.655 283.105C131.909 284.959 146.434 284.032 163.056 279.398C216.504 264.495 213.53 230.221 261.04 222.77C308.551 215.318 331.544 181.054 323.381 137.846Z" fill="white"/>
<path d="M95.5994 163.259C96.3289 166.902 105.046 168.366 105.046 168.366L111.51 164.659C114.216 187.458 116.617 206.069 117.42 207.691C119.599 212.065 135.584 206.236 137.033 198.942C137.624 195.994 134.762 176.114 131.151 153.482L153.738 140.618C153.738 140.618 154.726 137.364 147.699 138.625C145.243 139.07 138.077 141.748 129.822 145.215C124.743 113.981 118.87 80.8385 118.87 80.8385C118.87 80.8385 195.865 164.677 199.503 164.677C203.141 164.677 208.22 163.955 206.041 157.393C203.862 150.831 118.87 69.1792 118.87 69.1792C118.87 69.1792 104.344 68.447 101.445 75.0088C101.445 75.0088 105.979 117.197 110.263 154.01C101.759 158.171 95.3224 161.869 95.5994 163.259Z" fill="#263238"/>
<path d="M267.338 141.767C267.243 137.994 266.869 134.233 266.221 130.515C264.936 123.077 262.575 115.868 259.212 109.115C257.569 105.769 255.69 102.544 253.588 99.4673C251.532 96.4021 249.28 93.4735 246.847 90.6997C244.456 87.9327 241.9 85.3142 239.192 82.8589C233.844 78.0206 228.057 73.6952 221.906 69.9392C197.472 55.0454 169.27 48.2148 141.346 48.6226C134.363 48.817 127.406 49.567 120.541 50.8655C113.668 52.1334 106.948 54.1278 100.494 56.8156C94.0774 59.517 88.0197 63.0069 82.4593 67.2051C76.9613 71.3359 71.9433 76.0738 67.4999 81.3297C67.4207 81.4153 67.3767 81.5279 67.3767 81.6448C67.3767 81.7617 67.4207 81.8742 67.4999 81.9599C67.5428 82.0033 67.5938 82.0378 67.6501 82.0613C67.7064 82.0849 67.7667 82.097 67.8277 82.097C67.8886 82.097 67.949 82.0849 68.0052 82.0613C68.0615 82.0378 68.1126 82.0033 68.1555 81.9599C72.8097 77.0658 77.9981 72.7133 83.6228 68.9846C89.2019 65.1905 95.2248 62.0996 101.556 59.7814C114.234 55.1473 127.818 53.3957 141.263 53.5254C154.767 53.7285 168.183 55.7421 181.155 59.5126C194.142 63.2138 206.53 68.7764 217.935 76.0283C229.228 83.3408 239.414 92.5904 246.801 103.833C248.659 106.635 250.313 109.568 251.751 112.609C254.667 118.668 256.686 125.122 257.744 131.767C258.274 135.087 258.561 138.442 258.602 141.804C258.636 145.164 258.458 148.523 258.067 151.86C257.818 153.519 257.587 155.178 257.264 156.827L256.7 159.274L256.423 160.498L256.063 161.702C254.186 168.154 251.357 174.286 247.669 179.896C240.282 191.11 229.782 200.091 218.166 206.773C206.435 213.422 193.699 218.099 180.462 220.62C167.224 223.196 153.701 223.975 140.256 222.937C138.567 222.862 136.895 222.631 135.224 222.482C134.383 222.39 133.543 222.316 132.712 222.214L130.219 221.834C128.557 221.556 126.885 221.37 125.242 221.018L120.347 220.082C119.522 219.917 118.705 219.709 117.9 219.461L115.472 218.785C113.847 218.33 112.221 217.904 110.642 217.32L105.868 215.68L101.186 213.78C100.411 213.455 99.6258 213.15 98.8593 212.807L96.5785 211.741C95.0641 210.999 93.5219 210.323 92.0352 209.535C89.0895 207.895 86.0884 206.356 83.2812 204.484L81.1481 203.14L80.0769 202.463L79.0519 201.731L74.9427 198.765C73.5668 197.783 72.3017 196.662 70.9812 195.614L69.0235 194.02C68.3586 193.501 67.7677 192.889 67.1767 192.333L63.483 188.904L59.9739 185.225C59.4014 184.604 58.8012 184.02 58.2564 183.371L56.6404 181.425L55.0244 179.479C54.498 178.821 53.9255 178.2 53.4638 177.495L50.5273 173.38L49.7886 172.351L49.1329 171.267L47.7848 169.108C46.0451 166.221 44.4517 163.249 43.0106 160.201C40.1916 154.076 38.2307 147.588 37.1838 140.923C36.2064 134.247 36.2407 127.46 37.2854 120.793C38.3394 114.114 40.2869 107.607 43.0753 101.451C45.8862 95.3045 49.3507 89.4812 53.4084 84.0823C61.6066 73.2975 71.5332 63.9548 82.7825 56.4356C82.8821 56.371 82.9524 56.2697 82.9783 56.1536C83.0042 56.0374 82.9836 55.9157 82.921 55.8146C82.8579 55.711 82.7566 55.6364 82.6392 55.607C82.5217 55.5775 82.3975 55.5955 82.2931 55.6571C76.4037 59.1677 70.794 63.1308 65.5145 67.511C60.2117 71.9605 55.325 76.8869 50.9152 82.2287C46.4265 87.6392 42.5692 93.5474 39.4185 99.838C36.2083 106.237 33.8755 113.043 32.4836 120.07C31.1261 127.221 30.8645 134.537 31.7079 141.767C32.6209 149.015 34.529 156.101 37.3778 162.824C40.2559 169.455 43.8313 175.759 48.0433 181.629C48.5327 182.389 49.1237 183.065 49.6685 183.779L51.3492 185.901L53.0206 188.014C53.5931 188.71 54.221 189.358 54.812 190.026L58.4503 194.011L62.3194 197.718C62.9751 198.33 63.5938 198.988 64.2771 199.572L66.3271 201.314C67.703 202.454 69.0235 203.678 70.4548 204.753L74.7487 208.034L75.8291 208.84L76.9372 209.581L79.1812 211.064C82.1177 213.131 85.2942 214.771 88.4154 216.625C89.9852 217.478 91.6105 218.228 93.208 219.044L95.6181 220.23C96.4307 220.61 97.2618 220.944 98.0837 221.296L103.033 223.391L108.103 225.244C109.783 225.893 111.51 226.375 113.237 226.885L115.823 227.645C116.681 227.904 117.549 228.155 118.436 228.34L123.699 229.554C125.463 229.962 127.264 230.194 129.046 230.481L131.724 230.926C132.647 231.055 133.488 231.139 134.365 231.25C136.129 231.435 137.892 231.704 139.665 231.815C146.754 232.469 153.88 232.599 160.987 232.205C168.116 231.839 175.212 230.988 182.226 229.656C196.458 227.029 210.162 222.073 222.792 214.985C235.397 207.672 246.912 197.727 255.223 185.049C259.374 178.655 262.546 171.673 264.632 164.335L265.03 162.963L265.353 161.563L265.971 158.783C266.332 156.929 266.59 155.002 266.895 153.12C267.311 149.351 267.46 145.557 267.338 141.767Z" fill="#263238"/>
<path d="M140.229 80.8385C140.488 81.3906 140.898 81.8577 141.412 82.1857C141.925 82.5137 142.52 82.6893 143.128 82.6921C143.622 82.6953 144.109 82.581 144.55 82.3584L157.478 75.9913L165.946 83.2204C166.266 83.5153 166.643 83.7424 167.052 83.8879C167.462 84.0335 167.897 84.0946 168.331 84.0675C168.765 84.0405 169.189 83.9259 169.578 83.7305C169.966 83.5352 170.312 83.2631 170.593 82.9307C170.875 82.5982 171.087 82.2122 171.216 81.7956C171.346 81.3791 171.39 80.9406 171.347 80.5065C171.303 80.0723 171.173 79.6514 170.964 79.2689C170.755 78.8864 170.471 78.5503 170.129 78.2805L163.794 72.8679L170.932 69.3368C171.317 69.1445 171.661 68.878 171.943 68.5524C172.226 68.2269 172.441 67.8487 172.578 67.4395C172.715 67.0302 172.77 66.598 172.74 66.1674C172.711 65.7368 172.597 65.3163 172.405 64.9298C172.214 64.5434 171.948 64.1986 171.624 63.9152C171.299 63.6318 170.923 63.4153 170.515 63.278C170.107 63.1407 169.676 63.0854 169.247 63.1152C168.818 63.145 168.399 63.2593 168.014 63.4516L158.365 68.2246L151.587 62.4321C150.934 61.8741 150.087 61.5992 149.233 61.6679C148.378 61.7365 147.586 62.1431 147.03 62.7982C146.474 63.4532 146.2 64.3031 146.268 65.1609C146.337 66.0186 146.742 66.814 147.394 67.372L152.011 71.348L141.632 76.4732C140.869 76.8653 140.293 77.5455 140.03 78.3641C139.767 79.1827 139.838 80.0728 140.229 80.8385Z" fill="#263238"/>
</svg>
