<svg width="28" height="28" viewBox="0 0 28 28" fill="none" xmlns="http://www.w3.org/2000/svg">
<g id="bell">
<path id="Vector" d="M7 9.33334C7 7.47683 7.7375 5.69635 9.05025 4.3836C10.363 3.07084 12.1435 2.33334 14 2.33334C15.8565 2.33334 17.637 3.07084 18.9497 4.3836C20.2625 5.69635 21 7.47683 21 9.33334C21 17.5 24.5 19.8333 24.5 19.8333H3.5C3.5 19.8333 7 17.5 7 9.33334Z" stroke="#F95B0E" stroke-width="2" stroke-linecap="round" stroke-linejoin="round"/>
<path id="Vector_2" d="M12.0166 24.5C12.2119 24.8552 12.499 25.1514 12.8478 25.3577C13.1967 25.564 13.5946 25.6729 13.9999 25.6729C14.4053 25.6729 14.8031 25.564 15.152 25.3577C15.5009 25.1514 15.788 24.8552 15.9833 24.5" stroke="#F95B0E" stroke-width="2" stroke-linecap="round" stroke-linejoin="round"/>
</g>
</svg>
