<svg width="28" height="28" viewBox="0 0 28 28" fill="none" xmlns="http://www.w3.org/2000/svg">
<g id="mdi:bell-notification">
<path id="Vector" d="M24.5 7.58332C24.5 9.83499 22.6683 11.6667 20.4167 11.6667C18.165 11.6667 16.3333 9.83499 16.3333 7.58332C16.3333 5.33165 18.165 3.49999 20.4167 3.49999C22.6683 3.49999 24.5 5.33165 24.5 7.58332ZM22.1667 13.755C21.5833 13.9067 21 14 20.4167 14C18.7158 13.9969 17.0855 13.3199 15.8828 12.1172C14.6801 10.9145 14.0031 9.28418 14 7.58332C14 5.86832 14.6767 4.31665 15.75 3.16165C15.5383 2.90212 15.2713 2.69308 14.9686 2.54979C14.6658 2.40649 14.3349 2.33254 14 2.33332C12.7167 2.33332 11.6667 3.38332 11.6667 4.66665V5.00499C8.20167 6.03165 5.83333 9.21665 5.83333 12.8333V19.8333L3.5 22.1667V23.3333H24.5V22.1667L22.1667 19.8333V13.755ZM14 26.8333C15.295 26.8333 16.3333 25.795 16.3333 24.5H11.6667C11.6667 25.1188 11.9125 25.7123 12.3501 26.1499C12.7877 26.5875 13.3812 26.8333 14 26.8333Z" fill="#F95B0E"/>
</g>
</svg>
