<svg width="580" height="580" viewBox="0 0 580 580" fill="none" xmlns="http://www.w3.org/2000/svg">
<path d="M430.963 407.485C444.152 385.213 432.123 346.736 420.836 329.37C407.844 309.395 384.957 300.869 363.59 294.396C336.632 286.276 321.204 280.128 311.019 250.966C302.052 225.295 298.421 197.989 286.868 173.443C263.25 123.25 224.518 72.3144 164.917 90.5844C110.258 107.346 77.4528 163.664 107.416 217.024C132.704 262.067 192.304 225.597 200.691 286.798C208.51 343.801 143.619 392.904 180.704 446.878C217.592 500.575 268.134 420.338 307.608 398.425C332.954 384.354 336.817 418.145 356.943 429.873C381.257 444.013 414.282 435.673 430.963 407.485Z" fill="#5C2482"/>
<path opacity="0.9" d="M430.963 407.485C444.152 385.213 432.123 346.736 420.836 329.37C407.844 309.395 384.957 300.869 363.59 294.396C336.632 286.276 321.204 280.128 311.019 250.966C302.052 225.295 298.421 197.989 286.868 173.443C263.25 123.25 224.518 72.3144 164.917 90.5844C110.258 107.346 77.4528 163.664 107.416 217.024C132.704 262.067 192.304 225.597 200.691 286.798C208.51 343.801 143.619 392.904 180.704 446.878C217.592 500.575 268.134 420.338 307.608 398.425C332.954 384.354 336.817 418.145 356.943 429.873C381.257 444.013 414.282 435.673 430.963 407.485Z" fill="white"/>
<path d="M290 495.97C414.216 495.97 514.913 490.091 514.913 482.838C514.913 475.586 414.216 469.707 290 469.707C165.785 469.707 65.0879 475.586 65.0879 482.838C65.0879 490.091 165.785 495.97 290 495.97Z" fill="#F5F5F5"/>
<path d="M266.95 479.799C267.067 480.157 267.096 480.538 267.033 480.909C266.97 481.28 266.818 481.63 266.59 481.929C266.361 482.228 266.064 482.467 265.722 482.626C265.381 482.784 265.006 482.857 264.63 482.838H103.042C97.9963 482.838 97.9963 449.976 103.042 449.976H264.677C265.051 449.958 265.425 450.031 265.765 450.188C266.105 450.346 266.402 450.584 266.63 450.882C266.858 451.179 267.01 451.528 267.074 451.897C267.138 452.267 267.111 452.646 266.997 453.003C264.978 459.267 264.978 473.547 266.95 479.799Z" fill="#5C2482"/>
<path opacity="0.8" d="M266.718 453.815H168.664C164.801 453.815 164.801 478.999 168.664 478.999H266.718C265.06 472.677 265.06 460.126 266.718 453.815Z" fill="white"/>
<path opacity="0.2" d="M163.78 479.799C163.897 480.157 163.925 480.538 163.863 480.909C163.8 481.28 163.648 481.63 163.419 481.929C163.191 482.228 162.893 482.467 162.552 482.626C162.211 482.784 161.836 482.857 161.46 482.838H103.042C97.9963 482.838 97.9963 449.976 103.042 449.976H161.506C161.881 449.958 162.254 450.031 162.594 450.188C162.934 450.346 163.231 450.584 163.459 450.882C163.687 451.179 163.84 451.528 163.904 451.897C163.968 452.267 163.941 452.646 163.826 453.003C161.808 459.267 161.808 473.547 163.78 479.799Z" fill="black"/>
<path d="M127.959 449.976H114.608C109.562 449.976 109.562 482.838 114.608 482.838H127.959C122.96 482.838 122.96 449.976 127.959 449.976Z" fill="#5C2482"/>
<path d="M138.481 449.976H133.238C128.192 449.976 128.192 482.838 133.238 482.838H138.481C133.4 482.838 133.4 449.976 138.481 449.976Z" fill="#5C2482"/>
<path d="M93.6234 447.25C93.0666 448.595 94.4354 449.976 96.2914 449.976H241.616C247.544 449.976 247.544 420.43 241.616 420.43H96.2798C94.4238 420.43 93.055 421.799 93.6118 423.156C95.9318 428.782 95.9318 441.624 93.6234 447.25Z" fill="#5C2482"/>
<path opacity="0.2" d="M93.6234 447.25C93.0666 448.595 94.4354 449.976 96.2914 449.976H167.55C173.478 449.976 173.478 420.43 167.55 420.43H96.2798C94.4238 420.43 93.055 421.799 93.6118 423.156C95.9318 428.782 95.9318 441.624 93.6234 447.25Z" fill="black"/>
<path opacity="0.8" d="M93.8789 423.876H164.639C169.174 423.876 169.174 446.519 164.639 446.519H93.8789C95.8277 440.8 95.8277 429.56 93.8789 423.876Z" fill="white"/>
<path opacity="0.2" d="M188.14 427.019C187.7 425.708 188.976 424.432 190.739 424.432H231.42C235.735 424.432 235.735 445.962 231.42 445.962H190.739C188.976 445.962 187.7 444.698 188.14 443.387C189.533 438.02 189.533 432.386 188.14 427.019Z" fill="white"/>
<path d="M482.247 434.06C482.375 434.453 482.412 434.869 482.355 435.278C482.297 435.687 482.146 436.077 481.915 436.419C481.683 436.76 481.376 437.044 481.017 437.249C480.659 437.453 480.258 437.573 479.846 437.598H309.094C303.758 437.598 303.758 399.318 309.094 399.318H479.846C480.251 399.346 480.645 399.465 480.998 399.666C481.351 399.867 481.654 400.145 481.885 400.48C482.116 400.814 482.268 401.196 482.331 401.598C482.393 401.999 482.365 402.41 482.247 402.798C480.171 410.164 480.171 426.787 482.247 434.06Z" fill="#5C2482"/>
<path opacity="0.5" d="M482.247 434.06C482.375 434.453 482.412 434.869 482.355 435.278C482.297 435.687 482.146 436.077 481.915 436.419C481.683 436.76 481.376 437.044 481.017 437.249C480.659 437.453 480.258 437.573 479.846 437.598H309.094C303.758 437.598 303.758 399.318 309.094 399.318H479.846C480.251 399.346 480.645 399.465 480.998 399.666C481.351 399.867 481.654 400.145 481.885 400.48C482.116 400.814 482.268 401.196 482.331 401.598C482.393 401.999 482.365 402.41 482.247 402.798C480.171 410.164 480.171 426.787 482.247 434.06Z" fill="white"/>
<path opacity="0.8" d="M482.015 403.819H378.415C374.332 403.819 374.332 433.121 378.415 433.121H482.015C480.24 425.778 480.24 411.174 482.015 403.819Z" fill="white"/>
<path opacity="0.6" d="M373.253 434.06C373.382 434.453 373.419 434.869 373.361 435.278C373.303 435.687 373.153 436.077 372.921 436.419C372.689 436.76 372.382 437.044 372.024 437.249C371.665 437.453 371.264 437.573 370.852 437.598H309.094C303.758 437.598 303.758 399.318 309.094 399.318H370.852C371.258 399.346 371.651 399.465 372.004 399.666C372.357 399.867 372.661 400.145 372.891 400.48C373.122 400.814 373.274 401.196 373.337 401.598C373.4 401.999 373.371 402.41 373.253 402.798C371.2 410.164 371.2 426.787 373.253 434.06Z" fill="#5C2482"/>
<path opacity="0.5" d="M348.197 402.184C348.318 401.884 348.367 401.56 348.34 401.238C348.313 400.916 348.211 400.605 348.042 400.329C347.872 400.054 347.641 399.822 347.366 399.653C347.09 399.483 346.779 399.381 346.457 399.353H322.909C317.573 399.353 317.573 437.633 322.909 437.633H346.457C346.78 437.604 347.091 437.5 347.366 437.329C347.641 437.158 347.872 436.926 348.041 436.649C348.21 436.373 348.313 436.061 348.34 435.739C348.367 435.416 348.318 435.092 348.197 434.791C345.819 427.68 345.819 409.271 348.197 402.184Z" fill="white"/>
<path d="M469.997 478.628C470.135 479.136 470.149 479.67 470.039 480.186C469.929 480.701 469.697 481.183 469.364 481.591C469.031 481.999 468.605 482.322 468.122 482.533C467.639 482.744 467.113 482.837 466.587 482.804H289.177C281.602 482.804 281.59 437.564 289.177 437.564H466.657C467.183 437.531 467.709 437.623 468.192 437.834C468.675 438.045 469.1 438.368 469.434 438.776C469.767 439.184 469.998 439.666 470.109 440.181C470.219 440.697 470.204 441.231 470.067 441.74C467.039 450.358 467.051 470.02 469.997 478.628Z" fill="#5C2482"/>
<path opacity="0.2" d="M469.997 478.628C470.135 479.136 470.149 479.67 470.039 480.186C469.929 480.701 469.697 481.183 469.364 481.591C469.031 481.999 468.605 482.322 468.122 482.533C467.639 482.744 467.113 482.837 466.587 482.804H289.177C281.602 482.804 281.59 437.564 289.177 437.564H466.657C467.183 437.531 467.709 437.623 468.192 437.834C468.675 438.045 469.1 438.368 469.434 438.776C469.767 439.184 469.998 439.666 470.109 440.181C470.219 440.697 470.204 441.231 470.067 441.74C467.039 450.358 467.051 470.02 469.997 478.628Z" fill="white"/>
<path opacity="0.8" d="M469.649 442.853H362.384C356.584 442.853 356.584 477.514 362.384 477.514H469.661C467.179 468.826 467.179 451.553 469.649 442.853Z" fill="white"/>
<path opacity="0.6" d="M355.053 478.651C355.193 479.159 355.209 479.693 355.101 480.208C354.992 480.724 354.762 481.206 354.43 481.614C354.097 482.023 353.672 482.346 353.189 482.557C352.706 482.768 352.18 482.86 351.654 482.827H289.177C281.602 482.827 281.59 437.587 289.177 437.587H351.654C352.18 437.554 352.706 437.647 353.189 437.858C353.672 438.068 354.098 438.391 354.431 438.799C354.765 439.208 354.996 439.689 355.106 440.205C355.216 440.72 355.202 441.254 355.065 441.763C352.107 450.382 352.107 470.032 355.053 478.651Z" fill="#5C2482"/>
<path opacity="0.5" d="M317.631 439.164C317.727 438.999 317.777 438.81 317.773 438.618C317.769 438.426 317.713 438.239 317.61 438.077C317.507 437.915 317.361 437.785 317.189 437.701C317.016 437.616 316.824 437.581 316.633 437.598H306.019C298.456 437.598 298.456 482.838 306.019 482.838H316.679C316.871 482.856 317.063 482.821 317.235 482.736C317.407 482.652 317.553 482.522 317.656 482.36C317.759 482.198 317.816 482.011 317.819 481.819C317.823 481.627 317.774 481.438 317.677 481.272C313.072 474.278 313.072 446.148 317.631 439.164Z" fill="white"/>
<path opacity="0.5" d="M334.196 439.164C334.292 438.998 334.34 438.808 334.336 438.616C334.332 438.425 334.275 438.237 334.173 438.075C334.07 437.913 333.925 437.782 333.753 437.696C333.582 437.609 333.39 437.572 333.199 437.587H322.585C315.021 437.587 315.021 482.827 322.585 482.827H333.199C333.389 482.842 333.579 482.805 333.75 482.72C333.92 482.634 334.064 482.504 334.166 482.342C334.267 482.181 334.323 481.995 334.326 481.804C334.329 481.614 334.28 481.426 334.185 481.261C329.637 474.278 329.637 446.136 334.196 439.164Z" fill="white"/>
<path d="M468.257 375.283C468.052 372.061 467.294 368.899 466.019 365.934L467.063 365.423C468.389 368.514 469.173 371.81 469.383 375.167L468.257 375.283Z" fill="#5C2482"/>
<path d="M460.984 360.911H432.17V362.071H460.984V360.911Z" fill="#5C2482"/>
<path d="M273.191 396.186C272.6 397.764 274.05 399.353 276.01 399.353H460.984C467.236 399.353 467.236 364.971 460.984 364.971H276.01C274.05 364.971 272.6 366.572 273.191 368.149C275.627 374.68 275.627 389.632 273.191 396.186Z" fill="#5C2482"/>
<path opacity="0.2" d="M273.191 396.186C272.6 397.764 274.05 399.353 276.01 399.353H382.73C388.994 399.353 388.994 364.971 382.73 364.971H276.01C274.05 364.971 272.6 366.572 273.191 368.149C275.627 374.68 275.627 389.632 273.191 396.186Z" fill="black"/>
<path opacity="0.8" d="M273.47 368.996H379.633C384.435 368.996 384.435 395.34 379.633 395.34H273.47C275.523 388.728 275.523 375.608 273.47 368.996Z" fill="white"/>
<path opacity="0.2" d="M404.48 372.638C404.016 371.119 405.361 369.646 407.217 369.646H450.207C454.766 369.646 454.766 394.69 450.207 394.69H407.217C405.361 394.69 404.016 393.217 404.48 391.686C405.999 386.872 405.999 377.464 404.48 372.638Z" fill="white"/>
<path d="M255.896 113.68C250.664 119.283 237.893 113.68 235.944 129.108C233.833 145.742 241.837 153.735 231.501 158.108C215.261 164.894 203.661 192.015 226.211 202.188C248.762 212.361 296.786 201.701 291.38 180.972C285.975 160.242 287.042 149.118 293.422 139.351C301.832 126.44 300.034 109.852 293.178 103.843C282.506 94.4472 267.763 100.92 255.896 113.68Z" fill="#263238"/>
<path d="M283.805 180.415C283.717 180.418 283.63 180.388 283.563 180.329C283.497 180.271 283.455 180.19 283.446 180.102C283.438 180.055 283.439 180.007 283.45 179.961C283.461 179.915 283.481 179.872 283.509 179.834C283.537 179.796 283.573 179.764 283.614 179.74C283.655 179.716 283.7 179.701 283.747 179.696C288.225 179.081 290.893 177.979 292.146 176.216C293.7 174.023 293.027 170.764 292.146 166.634C290.777 159.918 288.886 150.719 294.918 139.096C302.238 125.002 299.558 109.55 292.703 104.493C292.626 104.437 292.575 104.353 292.56 104.26C292.544 104.167 292.567 104.071 292.621 103.994C292.679 103.917 292.765 103.865 292.86 103.85C292.955 103.835 293.053 103.857 293.132 103.913C300.277 109.144 303.038 125.013 295.556 139.432C289.652 150.823 291.508 159.883 292.853 166.495C293.735 170.787 294.431 174.186 292.691 176.633C291.322 178.57 288.503 179.765 283.817 180.415H283.805Z" fill="#263238"/>
<path d="M225.319 160.324C224.586 160.321 223.854 160.274 223.126 160.184C223.079 160.179 223.033 160.164 222.991 160.14C222.95 160.116 222.914 160.085 222.884 160.047C222.855 160.009 222.834 159.966 222.822 159.92C222.809 159.874 222.806 159.826 222.813 159.778C222.819 159.731 222.834 159.685 222.857 159.644C222.881 159.602 222.913 159.566 222.95 159.537C222.988 159.508 223.031 159.486 223.077 159.474C223.124 159.462 223.172 159.459 223.219 159.465C226.513 159.871 228.903 159.384 230.515 157.969C233.531 155.312 233.578 149.756 233.613 143.318C233.613 136.033 233.717 127.786 238.438 122.16C238.469 122.123 238.506 122.093 238.548 122.071C238.59 122.049 238.636 122.035 238.684 122.031C238.731 122.026 238.779 122.031 238.824 122.046C238.87 122.06 238.912 122.083 238.949 122.113C238.985 122.144 239.015 122.181 239.037 122.223C239.06 122.265 239.073 122.311 239.077 122.359C239.082 122.406 239.077 122.454 239.063 122.499C239.048 122.545 239.025 122.587 238.995 122.624C234.436 128.052 234.355 136.161 234.355 143.33C234.355 149.93 234.274 155.637 231.014 158.514C229.407 159.805 227.376 160.45 225.319 160.324Z" fill="#263238"/>
<path d="M339.172 364.948C331.435 364.855 328.396 364.368 324.835 364.426C321.274 364.484 320.427 365.11 316.715 364.948C314.209 364.843 314.198 361.862 315.16 359.82C315.914 358.22 316.842 356.607 317.701 354.612L327.514 355.331C328.837 359.066 335.402 360.667 341.156 361.99C343.441 362.535 342.27 364.982 339.172 364.948Z" fill="#5C2482"/>
<path d="M288.005 222.442C288.005 222.442 313.966 244.772 340.205 268.459C351.295 278.493 328.037 354.995 328.037 354.995C327.549 356.63 318.896 354.299 317.597 353.011C317.597 353.011 316.274 293.631 321.9 281.671C263.715 266.962 254.62 238.392 254.62 238.392L258.796 220.667L288.005 222.442Z" fill="#263238"/>
<path opacity="0.2" d="M258.46 245.433C261.717 249.985 265.576 254.075 269.932 257.59C275.732 250.804 274.108 239.842 274.108 239.842L258.46 245.433Z" fill="black"/>
<path d="M330.055 351.689C329.893 352.849 329.614 354.902 329.463 356.422C329.44 356.668 329.324 356.896 329.139 357.059C328.953 357.223 328.713 357.31 328.466 357.303C324.584 356.999 320.739 356.331 316.982 355.308C316.801 355.258 316.641 355.151 316.526 355.002C316.411 354.854 316.347 354.672 316.344 354.484L316.263 350.25C316.262 350.113 316.29 349.976 316.346 349.85C316.401 349.724 316.482 349.611 316.583 349.518C316.685 349.425 316.805 349.355 316.936 349.311C317.066 349.267 317.204 349.251 317.341 349.264L329.313 350.714C329.427 350.727 329.537 350.763 329.636 350.819C329.736 350.876 329.823 350.952 329.892 351.043C329.962 351.134 330.012 351.238 330.04 351.349C330.068 351.46 330.073 351.576 330.055 351.689Z" fill="#263238"/>
<path opacity="0.3" d="M330.055 351.689C329.893 352.849 329.614 354.902 329.463 356.422C329.44 356.668 329.324 356.896 329.139 357.059C328.953 357.223 328.713 357.31 328.466 357.303C324.584 356.999 320.739 356.331 316.982 355.308C316.801 355.258 316.641 355.151 316.526 355.002C316.411 354.854 316.347 354.672 316.344 354.484L316.263 350.25C316.262 350.113 316.29 349.976 316.346 349.85C316.401 349.724 316.482 349.611 316.583 349.518C316.685 349.425 316.805 349.355 316.936 349.311C317.066 349.267 317.204 349.251 317.341 349.264L329.313 350.714C329.427 350.727 329.537 350.763 329.636 350.819C329.736 350.876 329.823 350.952 329.892 351.043C329.962 351.134 330.012 351.238 330.04 351.349C330.068 351.46 330.073 351.576 330.055 351.689Z" fill="white"/>
<path d="M225.585 420.43C217.721 420.43 215.145 417.472 210.749 416.66C207.037 415.964 206.051 416.289 203.058 415.767C200.553 415.326 200.355 413.61 201.898 411.069C202.905 409.313 203.758 407.473 204.45 405.571L216.375 406.36C217.616 409.55 220.481 416.034 224.855 416.8C228.973 417.6 228.717 420.43 225.585 420.43Z" fill="#5C2482"/>
<path d="M286.207 222.372C286.207 222.372 258.773 271.15 247.73 301.322C236.13 333.013 217.663 384.842 216.329 406.36C214.357 407.299 207.884 406.94 204.404 405.571C204.404 405.571 201.179 331.331 223.509 301.588C228.834 237.893 237.673 227.708 247.069 219.948L286.207 222.372Z" fill="#263238"/>
<path d="M217.767 401.963C217.624 403.432 217.585 404.909 217.651 406.383C217.666 406.639 217.58 406.892 217.411 407.085C217.241 407.279 217.002 407.397 216.746 407.415C212.303 407.821 206.109 406.394 204.148 405.907C203.966 405.862 203.804 405.757 203.686 405.611C203.569 405.464 203.503 405.283 203.499 405.095L203.348 400.942C203.346 400.806 203.372 400.67 203.425 400.545C203.479 400.419 203.557 400.305 203.656 400.212C203.756 400.118 203.873 400.046 204.002 400C204.13 399.954 204.267 399.935 204.403 399.945L216.978 401.024C217.092 401.032 217.203 401.064 217.304 401.116C217.406 401.168 217.496 401.24 217.57 401.328C217.643 401.415 217.698 401.516 217.732 401.626C217.766 401.735 217.778 401.849 217.767 401.963Z" fill="#263238"/>
<path opacity="0.3" d="M217.767 401.963C217.624 403.432 217.585 404.909 217.651 406.383C217.666 406.639 217.58 406.892 217.411 407.085C217.241 407.279 217.002 407.397 216.746 407.415C212.303 407.821 206.109 406.394 204.148 405.907C203.966 405.862 203.804 405.757 203.686 405.611C203.569 405.464 203.503 405.283 203.499 405.095L203.348 400.942C203.346 400.806 203.372 400.67 203.425 400.545C203.479 400.419 203.557 400.305 203.656 400.212C203.756 400.118 203.873 400.046 204.002 400C204.13 399.954 204.267 399.935 204.403 399.945L216.978 401.024C217.092 401.032 217.203 401.064 217.304 401.116C217.406 401.168 217.496 401.24 217.57 401.328C217.643 401.415 217.698 401.516 217.732 401.626C217.766 401.735 217.778 401.849 217.767 401.963Z" fill="white"/>
<path d="M293.48 174.522C294.64 176.714 295.893 179.162 297.169 181.482C298.445 183.802 299.733 186.122 301.032 188.384C303.654 192.943 306.391 197.409 309.326 201.62L307.748 200.216C308.912 201.034 310.196 201.668 311.553 202.095C313.195 202.646 314.879 203.065 316.588 203.348C318.374 203.673 320.23 203.893 322.121 204.067C324.012 204.241 325.995 204.346 327.805 204.462H328.048C328.802 204.505 329.517 204.809 330.07 205.322C330.624 205.835 330.981 206.525 331.081 207.273C331.182 208.021 331.018 208.781 330.619 209.421C330.22 210.062 329.611 210.544 328.895 210.784C326.822 211.473 324.702 212.008 322.55 212.384C320.388 212.769 318.202 213.005 316.008 213.092C313.679 213.181 311.348 213.042 309.048 212.674C306.451 212.283 303.94 211.451 301.623 210.215C301.142 209.952 300.713 209.602 300.359 209.183L300.046 208.812C298.202 206.608 296.404 204.357 294.756 202.049C293.109 199.74 291.497 197.409 290 195.089C288.504 192.769 287.054 190.298 285.685 187.85C284.316 185.403 283.017 182.978 281.776 180.299C281.124 178.776 281.079 177.062 281.649 175.507C282.219 173.952 283.361 172.673 284.843 171.933C286.324 171.192 288.033 171.045 289.619 171.522C291.205 171.999 292.549 173.064 293.376 174.499L293.48 174.522Z" fill="#FFB573"/>
<path d="M287.077 165.161C294.651 167.655 295.881 171.054 300.034 183.605C297.273 191.133 286.114 194.95 286.114 194.95C286.114 194.95 272.936 173.49 287.077 165.161Z" fill="#5C2482"/>
<path d="M297.447 181.494C297.018 185.646 295.951 190.6 293.712 200.332C291.972 208.591 291.949 224.692 289.165 225.539C283.817 228.184 270.431 227.163 247.068 219.948C247.811 207.884 249.214 199.694 245.201 172.016C244.948 170.565 245.022 169.076 245.417 167.658C245.813 166.239 246.52 164.926 247.486 163.815C248.453 162.704 249.655 161.822 251.006 161.234C252.356 160.646 253.821 160.367 255.293 160.416C256.986 160.416 258.773 160.556 260.594 160.718C267.019 161.104 273.408 161.953 279.711 163.258C281.764 163.722 283.887 164.268 285.905 164.824C289.46 165.84 292.552 168.056 294.657 171.095C296.761 174.134 297.747 177.809 297.447 181.494Z" fill="#5C2482"/>
<path d="M215.667 229.471L217.987 227.348C218.419 226.954 218.75 226.461 218.952 225.912C219.154 225.363 219.221 224.774 219.147 224.193L218.509 218.66C218.387 217.572 218.008 216.53 217.403 215.618C216.798 214.706 215.984 213.952 215.029 213.417L213.869 212.756C209.728 216.015 207.652 222.581 207.652 222.581L206.851 224.39C206.675 224.756 206.574 225.153 206.553 225.559C206.532 225.964 206.592 226.37 206.729 226.752C206.866 227.134 207.077 227.485 207.351 227.785C207.625 228.084 207.956 228.326 208.325 228.497L211.886 230.121C212.512 230.388 213.202 230.468 213.872 230.353C214.543 230.238 215.166 229.932 215.667 229.471Z" fill="#FFB573"/>
<path d="M337.433 201.608L334.463 200.448C333.914 200.24 333.322 200.168 332.739 200.236C332.156 200.305 331.597 200.513 331.111 200.842L326.471 203.951C325.56 204.564 324.81 205.386 324.283 206.349C323.756 207.312 323.468 208.387 323.443 209.484V210.865C328.234 213.046 335.043 211.862 335.043 211.862L337.015 211.746C337.421 211.733 337.82 211.639 338.19 211.471C338.559 211.302 338.891 211.062 339.167 210.765C339.444 210.467 339.658 210.117 339.798 209.736C339.939 209.355 340.002 208.95 339.985 208.545L339.799 204.636C339.746 203.954 339.493 203.304 339.072 202.766C338.651 202.227 338.081 201.825 337.433 201.608Z" fill="#FFB573"/>
<path d="M252.115 175.752L250.63 176.436L249.006 177.178C247.927 177.7 246.86 178.246 245.793 178.802C243.647 179.962 241.559 181.122 239.506 182.34C237.452 183.558 235.469 184.916 233.543 186.296C231.618 187.676 229.831 189.184 228.091 190.727L228.857 189.753C228.291 190.585 227.795 191.462 227.372 192.374C226.861 193.43 226.386 194.578 225.922 195.75C224.994 198.07 224.089 200.552 223.254 203.046C222.419 205.54 221.572 208.069 220.748 210.598L218.243 218.219C218 218.968 217.493 219.603 216.817 220.006C216.142 220.409 215.342 220.553 214.568 220.412C213.794 220.27 213.098 219.852 212.609 219.235C212.119 218.619 211.871 217.845 211.909 217.059C212.037 214.264 212.292 211.549 212.605 208.812C212.918 206.074 213.313 203.348 213.765 200.61C214.218 197.873 214.809 195.124 215.563 192.34C215.934 190.948 216.34 189.556 216.851 188.094C217.39 186.485 218.081 184.931 218.916 183.454C219.062 183.212 219.229 182.983 219.414 182.77L219.693 182.48C221.603 180.373 223.649 178.393 225.818 176.552C227.954 174.736 230.193 173.044 232.522 171.483C234.821 169.924 237.203 168.492 239.656 167.191C240.886 166.541 242.127 165.926 243.392 165.323C244.03 165.033 244.656 164.732 245.317 164.453C245.978 164.175 246.582 163.931 247.405 163.618C248.985 162.986 250.749 163.001 252.319 163.659C253.888 164.316 255.135 165.564 255.793 167.133C256.45 168.702 256.465 170.467 255.833 172.047C255.202 173.626 253.974 174.894 252.416 175.578L252.115 175.752Z" fill="#FFB573"/>
<path d="M263.32 163.432C257.636 159.361 254.179 158.92 240.422 164.894C238.786 173.548 244.145 186.25 244.145 186.25C244.145 186.25 262.45 176.714 263.32 163.432Z" fill="#5C2482"/>
<path d="M264.805 139.328C265.651 145.696 266.197 157.238 261.649 160.811C261.649 160.811 267.589 160.706 278.945 169.998C283.202 165.358 280.766 163.351 280.766 163.351C274.003 160.788 274.479 155.672 275.952 150.997L264.805 139.328Z" fill="#FFB573"/>
<path d="M276.544 168.119C272.403 168.119 270.303 174.139 270.303 174.139C270.303 174.139 260.35 166.205 258.993 160.625C260.314 160.092 261.608 159.492 262.868 158.827C262.868 158.827 274.479 165.451 276.544 168.119Z" fill="white"/>
<path d="M280.511 167.968C280.511 167.968 283.643 169.128 284.676 173.768C286.798 164.929 282.657 163.537 282.657 163.537C281.62 162.759 280.329 162.395 279.038 162.516C279.885 163.107 280.497 163.977 280.766 164.974C281.035 165.971 280.945 167.031 280.511 167.968Z" fill="white"/>
<path opacity="0.2" d="M269.352 144.084L275.941 151.044C275.582 152.132 275.322 153.25 275.164 154.384C272.565 153.654 269.132 150.278 269.016 147.424C268.921 146.3 269.035 145.167 269.352 144.084Z" fill="black"/>
<path d="M257.659 130.059C259.979 139.966 260.826 144.2 266.777 148.724C275.721 155.521 287.332 151.113 287.959 140.859C288.516 131.579 284.548 116.963 274.039 114.179C271.812 113.509 269.446 113.447 267.187 113.997C264.927 114.547 262.856 115.691 261.186 117.31C259.517 118.929 258.31 120.964 257.69 123.205C257.07 125.446 257.059 127.813 257.659 130.059Z" fill="#FFB573"/>
<path d="M259.597 137.182C263.239 135.395 267.102 126.614 261.917 122.461C266.197 123.262 271.104 122.113 275.64 118.61C281.556 113.97 290.267 125.489 287.402 118.726C283.273 108.982 270.826 106.546 259.562 114.643C248.299 122.74 249.099 132.588 259.597 137.182Z" fill="#263238"/>
<path d="M256.511 135.198C256.471 135.194 256.434 135.177 256.405 135.151C256.375 135.124 256.355 135.089 256.347 135.05C256.34 135.011 256.344 134.97 256.361 134.934C256.378 134.898 256.406 134.869 256.441 134.85C259.341 133.597 271.649 130.976 272.171 130.871C272.194 130.864 272.219 130.863 272.244 130.866C272.268 130.869 272.292 130.878 272.312 130.891C272.333 130.904 272.351 130.922 272.365 130.942C272.378 130.963 272.387 130.986 272.391 131.01C272.398 131.056 272.388 131.103 272.362 131.142C272.336 131.181 272.297 131.208 272.252 131.219C272.124 131.219 259.492 133.945 256.58 135.186L256.511 135.198Z" fill="white"/>
<path opacity="0.2" d="M271.44 131.08C270.197 130.533 268.788 130.5 267.52 130.987C268.808 131.272 270.14 131.304 271.44 131.08Z" fill="black"/>
<path opacity="0.2" d="M271.335 131.962C270.732 131.834 270.108 131.84 269.507 131.978C268.906 132.116 268.343 132.384 267.855 132.762C269.059 132.743 270.245 132.47 271.335 131.962Z" fill="black"/>
<path d="M273.598 130.941C273.76 131.788 274.328 132.414 274.874 132.344C275.419 132.275 275.72 131.544 275.558 130.697C275.396 129.85 274.816 129.236 274.282 129.294C273.748 129.352 273.435 130.106 273.598 130.941Z" fill="#263238"/>
<path d="M283.782 129.839C283.945 130.674 284.525 131.3 285.058 131.242C285.592 131.184 285.905 130.43 285.743 129.595C285.58 128.76 285.012 128.122 284.467 128.192C283.921 128.261 283.62 128.992 283.782 129.839Z" fill="#263238"/>
<path d="M284.2 128.273L286.079 127.438C286.079 127.438 285.36 129.143 284.2 128.273Z" fill="#263238"/>
<path d="M281.88 131.451C282.884 133.344 284.123 135.101 285.569 136.683C285.173 137.015 284.709 137.255 284.209 137.385C283.71 137.516 283.188 137.533 282.68 137.437L281.88 131.451Z" fill="#ED893E"/>
<path d="M278.226 141.184C278.693 141.223 279.163 141.223 279.63 141.184C279.661 141.179 279.692 141.169 279.719 141.152C279.747 141.136 279.771 141.114 279.789 141.088C279.808 141.061 279.821 141.032 279.827 141C279.834 140.969 279.833 140.937 279.827 140.905C279.815 140.839 279.779 140.779 279.725 140.738C279.671 140.697 279.604 140.678 279.537 140.685C278.487 140.812 277.422 140.704 276.419 140.369C275.416 140.034 274.5 139.48 273.737 138.748C273.714 138.724 273.687 138.706 273.657 138.694C273.627 138.681 273.595 138.674 273.563 138.674C273.53 138.674 273.498 138.681 273.468 138.694C273.439 138.706 273.411 138.724 273.389 138.748C273.345 138.795 273.32 138.857 273.32 138.922C273.32 138.986 273.345 139.048 273.389 139.096C274.694 140.357 276.413 141.099 278.226 141.184Z" fill="#263238"/>
<path d="M255.305 138.933C255.864 139.731 256.582 140.404 257.415 140.909C258.248 141.414 259.176 141.741 260.142 141.868C262.555 142.065 263.077 139.258 261.847 136.764C260.745 134.525 258.158 131.706 256.047 132.681C253.936 133.655 253.739 136.88 255.305 138.933Z" fill="#FFB573"/>
<path d="M270.338 124.549C270.402 124.549 270.466 124.535 270.524 124.507C270.583 124.478 270.634 124.437 270.674 124.387C271.047 123.909 271.533 123.531 272.087 123.286C272.642 123.041 273.248 122.937 273.852 122.983C273.915 122.993 273.979 122.99 274.041 122.974C274.102 122.958 274.16 122.929 274.21 122.89C274.26 122.851 274.301 122.802 274.332 122.746C274.362 122.69 274.38 122.629 274.386 122.566C274.391 122.432 274.348 122.302 274.265 122.197C274.182 122.093 274.065 122.022 273.934 121.997C273.17 121.93 272.402 122.052 271.698 122.354C270.993 122.655 270.375 123.127 269.897 123.726C269.841 123.805 269.808 123.898 269.802 123.995C269.796 124.092 269.817 124.188 269.863 124.274C269.908 124.359 269.977 124.43 270.061 124.479C270.145 124.528 270.241 124.552 270.338 124.549Z" fill="#263238"/>
<path d="M285.662 124.12C285.724 124.127 285.787 124.121 285.846 124.103C285.906 124.085 285.962 124.056 286.01 124.016C286.056 123.97 286.093 123.916 286.118 123.856C286.143 123.797 286.156 123.732 286.156 123.668C286.156 123.603 286.143 123.539 286.118 123.479C286.093 123.419 286.056 123.365 286.01 123.32C285.509 122.69 284.869 122.185 284.141 121.843C283.412 121.501 282.615 121.331 281.81 121.348C281.746 121.353 281.684 121.372 281.628 121.403C281.572 121.434 281.523 121.477 281.484 121.528C281.446 121.58 281.419 121.639 281.405 121.702C281.391 121.765 281.391 121.83 281.404 121.893C281.424 122.024 281.493 122.143 281.595 122.227C281.698 122.31 281.829 122.352 281.961 122.345C282.599 122.338 283.23 122.478 283.805 122.754C284.38 123.029 284.884 123.433 285.279 123.934C285.325 123.992 285.383 124.038 285.449 124.07C285.516 124.102 285.588 124.119 285.662 124.12Z" fill="#263238"/>
<path d="M276.741 136.196C274.294 136.196 272.171 133.597 271.939 130.268C271.798 128.7 272.16 127.128 272.971 125.779C273.291 125.207 273.744 124.72 274.291 124.359C274.838 123.998 275.463 123.773 276.115 123.702C278.678 123.528 280.929 126.185 281.172 129.63C281.416 133.075 279.525 136.01 276.985 136.184L276.741 136.196ZM276.358 124.12H276.15C275.553 124.188 274.981 124.398 274.481 124.73C273.981 125.063 273.567 125.51 273.273 126.034C272.503 127.317 272.161 128.812 272.298 130.303C272.519 133.539 274.618 136.033 276.938 135.882C279.258 135.732 281.01 132.948 280.79 129.711C280.569 126.475 278.62 124.12 276.358 124.12Z" fill="white"/>
<path d="M287.588 135.569C285.14 135.569 283.006 132.982 282.774 129.653C282.639 128.086 283 126.515 283.806 125.164C284.129 124.592 284.584 124.105 285.132 123.744C285.681 123.383 286.308 123.158 286.961 123.088C289.502 122.914 291.775 125.57 292.007 129.004C292.142 130.571 291.781 132.142 290.975 133.493C290.654 134.066 290.199 134.554 289.65 134.915C289.101 135.277 288.473 135.501 287.82 135.569H287.588ZM287.205 123.447H286.985C286.388 123.516 285.816 123.725 285.316 124.058C284.815 124.39 284.401 124.837 284.108 125.361C283.348 126.649 283.007 128.14 283.133 129.63C283.354 132.762 285.326 135.21 287.588 135.21H287.797C288.394 135.144 288.967 134.936 289.468 134.603C289.969 134.27 290.382 133.821 290.673 133.296C291.437 132.014 291.778 130.525 291.648 129.038C291.427 125.895 289.455 123.447 287.205 123.447Z" fill="white"/>
<path d="M283.04 130.129C283.009 130.127 282.979 130.118 282.953 130.102C282.927 130.085 282.905 130.063 282.89 130.036C282.449 129.34 281.161 130.094 281.15 130.094C281.13 130.107 281.108 130.115 281.085 130.119C281.062 130.123 281.038 130.122 281.015 130.117C280.993 130.111 280.971 130.101 280.952 130.088C280.934 130.074 280.918 130.056 280.906 130.036C280.877 130.002 280.86 129.959 280.86 129.914C280.86 129.869 280.877 129.826 280.906 129.792C280.976 129.792 282.507 128.841 283.133 129.792C283.148 129.811 283.158 129.834 283.162 129.857C283.167 129.88 283.167 129.905 283.161 129.928C283.156 129.951 283.145 129.973 283.13 129.992C283.115 130.01 283.097 130.025 283.075 130.036C283.076 130.053 283.073 130.07 283.067 130.086C283.061 130.102 283.052 130.116 283.04 130.129Z" fill="white"/>
<path d="M274.05 129.375L275.917 128.551C275.917 128.551 275.21 130.256 274.05 129.375Z" fill="#263238"/>
</svg>
