<svg width="409" height="280" viewBox="0 0 409 280" fill="none" xmlns="http://www.w3.org/2000/svg">
<path opacity="0.7" d="M58.6338 13.4358C63.0328 11.1591 67.665 9.14482 72.4874 7.41175C107.378 -5.05874 150.205 -0.951459 183.745 13.4514C217.285 27.8543 242.384 51.3949 260.636 76.8678C269.013 88.509 276.437 101.011 289.851 109.617C307.128 120.71 330.469 123.221 351.066 129.261C425.957 151.237 426.816 231.794 361.171 261.875C335.296 273.736 303.338 277.311 273.61 278.97C232.416 281.262 190.478 280.088 150.698 271.78C110.917 263.471 73.2937 247.66 46.6756 224.057C11.8271 193.155 -1.6076 151.135 0.151575 110.743C1.04164 90.3006 5.64901 69.686 17.1675 51.1523C26.5183 36.2488 40.6232 22.7456 58.6338 13.4358Z" fill="white"/>
</svg>
