<svg width="28" height="28" viewBox="0 0 28 28" fill="none" xmlns="http://www.w3.org/2000/svg">
<g id="swm icon pack / user2">
<g id="Group">
<path id="Vector" d="M14 3.5C8.20101 3.5 3.5 8.20101 3.5 14C3.5 19.799 8.20101 24.5 14 24.5C19.799 24.5 24.5 19.799 24.5 14C24.5 8.20101 19.799 3.5 14 3.5Z" stroke="#5C2482" stroke-width="1.5"/>
<path id="Vector_2" d="M14 14C15.933 14 17.5 12.433 17.5 10.5C17.5 8.56701 15.933 7 14 7C12.0669 7 10.5 8.56701 10.5 10.5C10.5 12.433 12.0669 14 14 14Z" stroke="#5C2482" stroke-width="1.5"/>
<path id="Vector_3" d="M7 21.8263C7 19.9367 8.36701 17.5 10.5 17.5H17.5C19.633 17.5 21 19.9367 21 21.8263" stroke="#5C2482" stroke-width="1.5"/>
</g>
</g>
</svg>
